<?xml version="1.0" standalone="no"?>
<!DOCTYPE svg PUBLIC "-//W3C//DTD SVG 20010904//EN"
 "http://www.w3.org/TR/2001/REC-SVG-20010904/DTD/svg10.dtd">
<svg version="1.0" xmlns="http://www.w3.org/2000/svg"
 width="300.000000pt" height="296.000000pt" viewBox="0 0 300.000000 296.000000"
 preserveAspectRatio="xMidYMid meet">
<metadata>
Created by potrace 1.10, written by Peter Selinger 2001-2011
</metadata>
<g transform="translate(0.000000,296.000000) scale(0.100000,-0.100000)"
fill="#000000" stroke="none">
<path d="M1 2157 c0 -457 4 -793 9 -782 7 16 9 17 9 3 1 -9 -3 -20 -9 -23 -7
-4 -10 -242 -10 -680 l0 -675 1500 0 1500 0 0 1480 0 1480 -687 -1 c-434 -1
-660 -5 -613 -10 41 -5 84 -11 95 -14 11 -3 33 -8 50 -11 16 -4 76 -21 132
-40 423 -138 761 -458 927 -876 45 -114 76 -247 81 -348 5 -96 -6 -85 -20 20
-52 387 -288 769 -610 988 -58 40 -108 72 -111 72 -3 0 -19 9 -35 21 -16 11
-29 18 -29 15 0 -3 -26 7 -57 23 -94 48 -255 100 -363 117 -14 3 -34 6 -45 8
-11 2 -45 7 -75 11 -41 6 -50 10 -35 16 11 4 -36 7 -105 7 -77 0 -115 -3 -100
-8 27 -9 24 -11 -17 -14 -49 -4 -137 -17 -173 -26 -19 -5 -57 -14 -85 -21
-103 -24 -157 -45 -291 -110 -75 -37 -225 -130 -258 -161 -8 -7 -36 -31 -63
-53 -120 -100 -248 -263 -331 -423 -65 -125 -121 -297 -125 -379 0 -7 -4 -13
-9 -13 -4 0 -8 -12 -7 -27 0 -16 -6 -57 -15 -93 l-16 -65 5 92 c17 344 235
733 548 981 165 131 418 252 592 285 11 2 31 7 45 11 14 3 59 10 100 15 48 5
-177 9 -612 10 l-688 1 1 -803z m1870 520 c22 -17 39 -52 39 -79 -1 -17 -5
-12 -15 17 -24 68 -67 84 -110 40 -29 -28 -32 -63 -10 -105 9 -17 11 -30 6
-30 -17 0 -41 67 -35 99 12 57 83 90 125 58z m19 -127 c-16 -31 -90 -64 -90
-41 0 5 13 11 30 14 16 4 38 16 47 27 22 25 27 26 13 0z m-72 -67 c-10 -2 -18
-8 -18 -12 0 -5 -20 -11 -45 -14 -25 -4 -51 -11 -58 -17 -6 -6 -19 -16 -29
-23 -10 -8 -18 -31 -20 -64 l-5 -53 75 2 c40 2 76 7 79 12 8 12 7 91 -1 104
-3 5 -14 8 -24 6 -9 -3 -28 -1 -42 4 -21 8 -16 10 33 13 l57 4 0 -76 0 -76
-127 -7 c-238 -13 -266 -18 -280 -46 -7 -14 -11 -33 -9 -42 4 -17 -23 -18
-450 -18 l-454 0 -2 -32 c0 -18 -2 -264 -2 -545 l-2 -513 46 1 c27 1 35 4 20
6 -14 3 -28 8 -33 12 -12 12 -10 1035 2 1039 6 2 9 7 7 11 -3 4 23 4 57 1 71
-7 114 -6 123 3 4 3 18 4 33 1 51 -10 181 -9 186 1 3 6 7 5 11 -3 3 -6 10 -9
16 -6 13 8 461 9 474 1 6 -3 16 -2 24 3 13 8 176 5 253 -5 20 -3 37 -1 37 4 0
5 13 9 30 9 16 -1 28 -4 25 -7 -2 -4 23 -4 56 -1 35 3 59 2 59 -4 0 -5 3 -6 6
-3 4 3 14 2 24 -3 12 -6 15 -18 12 -38 -2 -16 1 -45 6 -65 6 -19 7 -39 4 -42
-4 -4 -7 -209 -8 -456 0 -247 -3 -452 -7 -456 -4 -3 -7 231 -7 520 l0 527
-707 0 -708 0 -2 -509 -2 -509 47 -4 c26 -3 117 -6 202 -7 85 -1 157 -4 159
-7 2 -2 -74 -5 -170 -6 -152 -1 -163 -2 -89 -9 127 -11 278 -10 285 1 4 6 144
10 391 9 l384 -1 43 -35 c23 -19 44 -38 47 -41 8 -10 -54 31 -66 43 -8 8 -92
12 -267 14 -140 1 -267 4 -283 7 -16 3 -63 2 -104 -2 l-75 -7 51 -23 c75 -35
98 -64 95 -121 -2 -66 -11 -67 -11 -2 0 49 -3 58 -27 76 -77 56 -122 62 -510
63 l-163 0 0 565 0 565 460 0 460 0 0 25 c0 49 31 65 123 65 45 0 88 4 95 9 7
4 17 34 21 66 9 65 22 80 86 95 22 6 51 14 65 19 14 5 32 9 40 9 10 0 9 -2 -2
-5z m135 -34 c10 -6 23 -23 29 -39 7 -21 20 -32 46 -41 20 -6 46 -18 56 -25
53 -36 77 -130 36 -141 -18 -5 -20 -14 -20 -93 l0 -87 73 -34 c39 -18 106 -45
147 -59 91 -31 103 -49 96 -135 -5 -58 -79 -381 -225 -985 -83 -343 -79 -336
-201 -326 -41 3 -136 9 -212 13 -130 6 -137 7 -147 29 l-11 24 -255 0 -255 0
-82 -40 c-98 -47 -120 -49 -317 -21 -83 12 -137 24 -142 33 -5 7 -16 36 -25
63 -9 28 -25 64 -35 81 -13 21 -19 50 -19 91 l0 61 48 -6 c60 -6 67 -12 14
-12 l-42 0 0 -54 c0 -45 4 -58 22 -70 14 -10 17 -16 8 -16 -9 0 -11 -3 -4 -10
11 -11 151 -30 227 -30 26 0 47 -4 47 -9 0 -6 -8 -8 -18 -7 -9 2 -64 7 -121
10 -57 4 -108 9 -113 12 -14 9 -9 -15 15 -60 21 -42 24 -44 82 -50 33 -4 76
-9 95 -12 114 -13 201 -16 213 -6 8 7 14 35 15 69 1 32 6 99 11 148 6 50 13
124 16 165 4 41 9 77 12 80 3 3 3 -22 0 -55 -14 -149 -30 -385 -26 -389 2 -3
31 8 64 24 32 16 63 27 67 24 16 -10 27 39 34 152 9 150 8 147 24 152 9 3 11
-1 5 -14 -11 -26 -26 -267 -17 -276 4 -3 109 -8 233 -10 217 -3 228 -4 245
-24 17 -19 33 -23 135 -28 l117 -5 -21 42 c-32 67 -61 104 -78 102 -9 -2 -23
1 -30 6 -10 6 -2 9 23 9 35 0 38 -3 77 -74 22 -41 46 -78 53 -83 19 -12 151
-13 165 -1 16 13 38 86 68 223 13 63 57 244 65 270 5 17 11 41 14 55 3 14 11
45 17 70 6 25 13 52 14 60 1 8 5 22 8 30 5 15 13 48 42 175 8 39 18 79 20 90
32 133 53 228 65 293 14 78 -5 113 -68 131 -26 8 -29 7 -25 -10 3 -10 8 -17
12 -14 10 5 -4 -104 -17 -137 -6 -14 -13 -44 -16 -65 -3 -21 -17 -81 -31 -133
-24 -86 -36 -109 -58 -110 -4 0 -7 -19 -7 -42 2 -71 -20 -229 -40 -290 -10
-32 -36 -78 -56 -103 -37 -44 -39 -45 -94 -43 l-55 2 52 3 c28 2 56 10 62 17
9 11 6 13 -16 12 -16 -2 -39 1 -53 5 -18 5 -7 7 36 8 69 1 81 11 110 94 14 39
44 248 44 310 l0 27 -75 0 -75 0 0 -204 c0 -125 -4 -207 -10 -211 -10 -6 -14
381 -11 933 l1 222 -147 0 c-109 0 -144 -3 -133 -11 12 -9 11 -9 -5 -3 -11 5
-80 9 -154 11 -74 1 -136 4 -138 6 -6 7 248 17 425 17 l172 0 0 -375 0 -375
90 0 c84 0 91 2 100 23 24 56 90 364 85 392 -11 52 -16 65 -27 65 -10 0 -42
14 -135 58 l-53 24 0 94 c0 83 2 94 20 104 26 14 25 33 -2 81 -20 36 -68 69
-101 69 -18 0 -34 18 -39 45 -4 25 -43 45 -90 45 -20 0 -40 5 -44 11 -8 14 88
4 119 -12z m-1304 -336 l-85 -4 0 -483 c1 -266 -2 -482 -6 -479 -5 2 -8 222
-8 489 l0 484 93 -2 92 -2 -86 -3z m254 0 c-23 -2 -64 -2 -90 0 -26 2 -7 3 42
3 50 0 71 -1 48 -3z m614 -143 c151 -74 227 -248 177 -405 -31 -99 -114 -182
-199 -200 -21 -5 -15 0 20 18 53 25 97 70 123 124 8 18 18 30 22 28 4 -2 6 45
6 105 -1 61 2 110 7 110 4 0 7 5 7 11 0 5 -4 8 -9 4 -11 -6 -26 32 -22 54 1 7
-2 10 -7 7 -13 -8 -45 42 -36 56 4 6 3 8 -3 5 -5 -3 -20 7 -32 23 -56 77 -215
106 -316 59 -42 -20 -71 -44 -111 -94 -23 -30 -5 5 23 43 25 33 84 69 138 83
55 15 146 1 212 -31z m-84 -48 c7 -5 24 -12 40 -16 15 -3 27 -12 27 -19 0 -6
16 -27 34 -45 34 -34 66 -119 68 -177 0 -39 -14 -91 -37 -135 -11 -19 -18 -39
-17 -43 1 -5 -3 -5 -9 -1 -9 5 -10 2 -6 -10 4 -9 3 -15 -2 -11 -6 3 -29 -5
-53 -17 -31 -17 -60 -23 -104 -23 -70 0 -103 14 -156 66 -24 24 -46 37 -64 37
-62 0 -102 104 -59 152 7 8 20 40 29 71 30 103 97 169 186 182 39 6 110 -1
123 -11z m-487 -363 c3 -5 11 -6 17 -3 7 4 9 4 5 -1 -4 -4 -1 -17 7 -29 8 -11
15 -38 15 -59 0 -31 -7 -46 -34 -73 -18 -18 -31 -35 -29 -37 2 -3 -18 -1 -44
4 -61 12 -93 35 -109 81 -15 43 -2 108 21 108 8 0 15 4 15 9 0 28 119 27 136
0z m2041 -253 c-29 -459 -372 -940 -824 -1157 -83 -39 -261 -103 -318 -113
-16 -3 -48 -9 -70 -15 -53 -12 -134 -13 -115 -1 8 6 28 10 43 10 27 0 107 16
137 27 8 4 20 7 25 7 58 8 265 89 346 137 25 15 55 30 66 33 11 3 28 14 39 24
10 10 48 39 84 64 36 26 90 71 120 100 253 244 400 533 452 892 6 47 14 86 16
86 3 0 2 -42 -1 -94z m-1820 48 c-3 -3 -12 -4 -19 -1 -8 3 -5 6 6 6 11 1 17
-2 13 -5z m-1138 -63 c3 -85 73 -305 143 -448 145 -296 359 -510 659 -660 162
-81 181 -89 280 -113 123 -31 120 -30 169 -37 68 -9 82 -21 25 -21 -67 0 -251
47 -377 98 -438 175 -770 555 -887 1018 -21 82 -38 242 -22 207 5 -11 10 -31
10 -44z m1228 2 c25 -54 25 -57 8 -70 -11 -7 -25 -13 -33 -13 -7 0 -10 -5 -6
-12 4 -6 3 -8 -4 -4 -6 3 -68 -14 -137 -39 -70 -26 -129 -44 -131 -42 -7 6 36
24 177 74 l137 48 -20 50 c-11 27 -21 52 -24 54 -2 2 -67 -18 -144 -45 l-140
-49 4 -60 5 -60 -12 60 -13 60 41 19 c52 25 225 84 248 85 13 1 26 -16 44 -56z
m-37 18 c0 -5 -12 -8 -26 -8 -18 0 -22 2 -13 8 18 11 39 11 39 0z m-20 -75 c0
-2 -7 -7 -16 -10 -8 -3 -12 -2 -9 4 6 10 25 14 25 6z m-293 -58 c-3 -8 -6 -5
-6 6 -1 11 2 17 5 13 3 -3 4 -12 1 -19z m1020 -55 c-3 -10 -5 -4 -5 12 0 17 2
24 5 18 2 -7 2 -21 0 -30z m-32 -32 c35 -8 31 -9 -37 -10 -42 0 -80 4 -83 9
-7 12 63 12 120 1z m-1143 -64 c-12 -13 -22 -31 -22 -40 0 -17 5 -19 95 -34
41 -6 50 -12 50 -28 0 -19 -6 -20 -105 -17 -58 2 -125 5 -150 7 -25 2 -50 -1
-59 -8 -12 -10 -13 -9 -7 2 6 9 4 12 -5 9 -8 -2 -20 -17 -28 -33 -12 -25 -12
-30 5 -42 16 -12 16 -13 -10 -13 -27 0 -28 2 -22 33 8 43 39 83 62 79 11 -1
75 -7 144 -12 69 -6 134 -11 144 -13 11 -1 21 3 23 9 3 8 -23 14 -77 19 -75 7
-80 8 -80 31 0 38 21 74 43 74 20 0 20 0 -1 -23z m128 3 c27 -8 18 -11 -42
-14 -20 0 -34 2 -32 6 2 3 -4 9 -13 11 -10 3 0 5 22 5 22 0 51 -4 65 -8z m151
-27 l-6 -38 -3 34 -3 33 -50 -5 c-27 -3 -49 -1 -49 4 0 5 26 9 58 9 l58 0 -5
-37z m729 -1 c0 -5 -13 -7 -30 -4 -16 2 -30 6 -30 8 0 2 14 4 30 4 17 0 30 -4
30 -8z m70 -8 c0 -2 -15 -4 -32 -4 -23 0 -29 3 -19 9 12 8 51 4 51 -5z m113 9
c-7 -2 -21 -2 -30 0 -10 3 -4 5 12 5 17 0 24 -2 18 -5z m-381 -20 c-18 -44
-54 -104 -59 -100 -3 3 9 31 27 61 31 55 47 73 32 39z m315 1 c-3 -3 -12 -4
-19 -1 -8 3 -5 6 6 6 11 1 17 -2 13 -5z m-1189 -41 c-10 -2 -26 -2 -35 0 -10
3 -2 5 17 5 19 0 27 -2 18 -5z m892 -7 c0 -2 -8 -10 -17 -17 -16 -13 -17 -12
-4 4 13 16 21 21 21 13z m136 -26 c36 -36 40 -45 38 -82 -3 -50 -20 -77 -59
-94 -44 -18 -88 -3 -115 41 -25 41 -25 71 1 114 24 40 36 36 14 -5 -22 -43
-19 -87 10 -118 71 -77 180 34 114 118 -11 14 -35 30 -52 35 l-32 9 31 1 c18
1 38 -7 50 -19z m-173 -38 c-3 -12 -10 -22 -15 -22 -5 0 -7 3 -5 8 2 4 7 16
11 26 9 25 17 16 9 -12z m120 17 c-7 -7 -8 -21 -3 -39 6 -22 4 -32 -10 -45
-17 -15 -19 -15 -33 5 -18 26 -12 56 16 75 25 18 46 20 30 4z m-166 -34 c-9
-22 21 -111 46 -140 17 -20 35 -27 84 -32 34 -3 60 -9 57 -14 -2 -4 -10 -6
-17 -4 -7 2 -32 6 -57 9 -25 2 -48 5 -52 5 -15 2 -57 80 -69 125 l-11 46 -97
2 -96 2 100 6 c55 3 104 7 109 8 4 1 6 -5 3 -13z m220 -7 c-3 -8 -6 -5 -6 6
-1 11 2 17 5 13 3 -3 4 -12 1 -19z m-454 5 c-13 -2 -33 -2 -45 0 -13 2 -3 4
22 4 25 0 35 -2 23 -4z m-574 -29 c2 -2 -23 -4 -57 -4 -33 0 -63 4 -66 9 -5 8
115 3 123 -5z m1011 1 c0 -8 -4 -15 -10 -15 -5 0 -10 7 -10 15 0 8 5 15 10 15
6 0 10 -7 10 -15z m-826 -27 c23 -33 20 -128 -4 -128 -5 0 -3 16 2 35 7 22 8
46 2 67 -9 30 -14 34 -54 39 l-45 6 42 1 c33 2 45 -3 57 -20z m1151 -3 c46
-46 28 -143 -30 -159 -64 -17 -101 101 -48 156 33 34 47 35 78 3z m-1302 -2
c-7 -2 -19 -2 -25 0 -7 3 -2 5 12 5 14 0 19 -2 13 -5z m125 -5 c14 -14 15 -64
1 -93 -7 -15 -8 -10 -5 22 2 26 -1 49 -11 62 -15 23 -5 29 15 9z m1012 -36 c0
-5 -7 -17 -16 -28 -8 -10 -14 -14 -11 -9 2 6 7 18 10 28 7 17 17 23 17 9z
m-117 -89 c-7 -2 -21 -2 -30 0 -10 3 -4 5 12 5 17 0 24 -2 18 -5z m-1110 -10
c-13 -2 -35 -2 -50 0 -16 2 -5 4 22 4 28 0 40 -2 28 -4z m52 -11 c-3 -3 -11 0
-18 7 -9 10 -8 11 6 5 10 -3 15 -9 12 -12z"/>
<path d="M1678 1630 c-1 -33 0 -60 5 -60 4 0 7 27 7 60 0 77 -7 77 -12 0z"/>
<path d="M1276 1906 c-72 -27 -124 -96 -141 -188 -4 -21 -13 -42 -21 -49 -8
-7 -14 -30 -14 -55 0 -35 5 -47 24 -60 14 -8 35 -14 48 -13 16 3 36 -10 70
-43 51 -51 88 -64 164 -55 170 19 233 248 109 395 -56 66 -162 96 -239 68z
m151 -180 c23 -20 28 -32 28 -70 0 -36 -6 -51 -27 -73 -71 -71 -180 5 -148
103 22 65 94 85 147 40z m-231 -69 c25 -22 26 -26 15 -60 -13 -39 -40 -54 -69
-38 -33 18 -38 72 -9 109 14 18 33 15 63 -11z"/>
<path d="M1327 1724 c-4 -4 -4 -18 0 -32 4 -17 2 -23 -5 -18 -19 11 -34 -30
-21 -58 34 -74 145 -40 135 42 -5 45 -32 72 -71 72 -17 0 -35 -3 -38 -6z"/>
<path d="M1138 1632 c-6 -22 8 -62 22 -62 6 0 15 11 22 25 8 19 8 28 -2 40
-17 20 -37 19 -42 -3z"/>
<path d="M810 1540 c-29 -28 -32 -35 -27 -73 9 -70 77 -112 138 -87 64 27 77
104 25 156 -45 45 -90 47 -136 4z m33 -14 c-10 -13 -20 -20 -22 -14 -1 5 5 16
15 23 26 20 28 18 7 -9z m88 7 c13 -15 12 -15 -8 -4 -24 12 -29 21 -14 21 5 0
15 -7 22 -17z m-42 -17 c19 -23 10 -71 -13 -71 -29 0 -42 28 -28 59 13 29 24
32 41 12z m42 -79 c-10 -9 -11 -8 -5 6 3 10 9 15 12 12 3 -3 0 -11 -7 -18z
m29 8 c0 -25 -42 -55 -74 -54 -27 2 -28 2 -7 6 34 7 71 32 71 49 0 8 2 14 5
14 3 0 5 -7 5 -15z"/>
<path d="M857 1493 c-3 -5 1 -14 9 -20 14 -14 30 0 19 17 -7 12 -22 13 -28 3z"/>
<path d="M1625 848 c-9 -22 4 -43 17 -30 7 7 7 16 0 29 -10 17 -11 17 -17 1z"/>
<path d="M1951 779 c-29 -31 -27 -79 4 -113 24 -26 28 -27 48 -13 12 8 26 31
32 52 18 71 -39 122 -84 74z"/>
</g>
</svg>
