<?xml version="1.0" standalone="no"?>
<!DOCTYPE svg PUBLIC "-//W3C//DTD SVG 20010904//EN"
 "http://www.w3.org/TR/2001/REC-SVG-20010904/DTD/svg10.dtd">
<svg version="1.0" xmlns="http://www.w3.org/2000/svg"
 width="300.000000pt" height="296.000000pt" viewBox="0 0 300.000000 296.000000"
 preserveAspectRatio="xMidYMid meet">
<metadata>
Created by potrace 1.10, written by Peter Selinger 2001-2011
</metadata>
<g transform="translate(0.000000,296.000000) scale(0.100000,-0.100000)"
fill="#000000" stroke="none">
<path d="M1300 2948 c-41 -4 -86 -11 -100 -14 -14 -4 -34 -9 -45 -11 -174 -33
-427 -154 -592 -285 -313 -248 -531 -637 -548 -981 l-5 -92 16 65 c9 36 15 77
15 93 -1 15 3 27 7 27 5 0 9 6 9 13 4 82 60 254 125 379 83 160 211 323 331
423 27 22 55 46 63 53 33 31 183 124 258 161 134 65 188 86 291 110 28 7 66
16 85 21 41 10 133 23 172 24 14 1 29 4 33 7 11 12 -39 15 -115 7z"/>
<path d="M1604 2950 c-12 -5 1 -10 36 -15 30 -4 64 -9 75 -11 11 -2 31 -5 45
-8 108 -17 269 -69 363 -117 31 -16 57 -26 57 -23 0 3 13 -4 29 -15 16 -12 32
-21 35 -21 3 0 53 -32 111 -72 322 -219 558 -601 610 -988 14 -105 25 -116 20
-20 -5 101 -36 234 -81 348 -166 418 -504 738 -927 876 -56 19 -116 36 -132
40 -17 3 -39 8 -50 11 -38 10 -173 21 -191 15z"/>
<path d="M1778 2670 c-34 -26 -42 -73 -22 -116 9 -19 20 -34 25 -34 5 0 3 13
-6 30 -22 42 -19 77 10 105 43 44 86 28 110 -40 10 -29 14 -34 15 -17 1 75
-76 117 -132 72z"/>
<path d="M1877 2550 c-9 -11 -31 -23 -47 -27 -17 -3 -30 -9 -30 -14 0 -23 74
10 90 41 14 26 9 25 -13 0z"/>
<path d="M1780 2479 c-14 -5 -43 -13 -65 -19 -64 -15 -77 -30 -86 -95 -4 -32
-14 -62 -21 -66 -7 -5 -50 -9 -95 -9 -92 0 -123 -16 -123 -65 l0 -25 -460 0
-460 0 0 -565 0 -565 163 0 c388 -1 433 -7 510 -63 24 -18 27 -27 27 -76 0
-65 9 -64 11 2 3 57 -20 86 -95 121 l-51 23 75 7 c41 4 88 5 104 2 16 -3 143
-6 283 -7 175 -2 259 -6 267 -14 12 -12 74 -53 66 -43 -3 3 -24 22 -47 41
l-43 35 -384 1 c-247 1 -387 -3 -391 -9 -7 -11 -158 -12 -285 -1 -74 7 -63 8
89 9 96 1 172 4 170 6 -2 3 -74 6 -159 7 -85 1 -176 4 -202 7 l-47 4 2 509 2
509 708 0 707 0 0 -527 c0 -289 3 -523 7 -520 4 4 7 209 7 456 1 247 4 452 8
456 3 3 2 23 -4 42 -5 20 -8 49 -6 65 3 20 0 32 -12 38 -10 5 -20 6 -24 3 -3
-3 -6 -2 -6 3 0 6 -24 7 -59 4 -33 -3 -58 -3 -56 1 3 3 -9 6 -25 7 -17 0 -30
-4 -30 -9 0 -5 -17 -7 -37 -4 -77 10 -240 13 -253 5 -8 -5 -18 -6 -24 -3 -13
8 -461 7 -474 -1 -6 -3 -13 0 -16 6 -4 8 -8 9 -11 3 -5 -10 -135 -11 -186 -1
-15 3 -29 2 -33 -1 -9 -9 -52 -10 -123 -3 -34 3 -60 3 -57 -1 2 -4 -1 -9 -7
-11 -12 -4 -14 -1027 -2 -1039 5 -4 19 -9 33 -12 15 -2 7 -5 -20 -6 l-46 -1 2
513 c0 281 2 527 2 545 l2 32 454 0 c427 0 454 1 450 18 -2 9 2 28 9 42 14 28
42 33 280 46 l127 7 0 76 0 76 -57 -4 c-49 -3 -54 -5 -33 -13 14 -5 33 -7 42
-4 10 2 21 -1 24 -6 8 -13 9 -92 1 -104 -3 -5 -39 -10 -79 -12 l-75 -2 5 53
c2 33 10 56 20 64 10 7 23 17 29 23 7 6 33 13 58 17 25 3 45 9 45 14 0 4 8 10
18 12 11 3 12 5 2 5 -8 0 -26 -4 -40 -9z"/>
<path d="M1834 2461 c4 -6 24 -11 44 -11 47 0 86 -20 90 -45 5 -27 21 -45 39
-45 33 0 81 -33 101 -69 27 -48 28 -67 2 -81 -18 -10 -20 -21 -20 -104 l0 -94
53 -24 c93 -44 125 -58 135 -58 11 0 16 -13 27 -65 5 -28 -61 -336 -85 -392
-9 -21 -16 -23 -100 -23 l-90 0 0 375 0 375 -172 0 c-177 0 -431 -10 -425 -17
2 -2 64 -5 138 -6 74 -2 143 -6 154 -11 16 -6 17 -6 5 3 -11 8 24 11 133 11
l147 0 -1 -222 c-3 -552 1 -939 11 -933 6 4 10 86 10 211 l0 204 75 0 75 0 0
-27 c0 -62 -30 -271 -44 -310 -29 -83 -41 -93 -110 -94 -43 -1 -54 -3 -36 -8
14 -4 37 -7 53 -5 22 1 25 -1 16 -12 -6 -7 -34 -15 -62 -17 l-52 -3 55 -2 c55
-2 57 -1 94 43 20 25 46 71 56 103 20 61 42 219 40 290 0 23 3 42 7 42 22 1
34 24 58 110 14 52 28 112 31 133 3 21 10 51 16 65 13 33 27 142 17 137 -4 -3
-9 4 -12 14 -4 17 -1 18 25 10 93 -26 93 -50 3 -424 -2 -11 -12 -51 -20 -90
-29 -127 -37 -160 -42 -175 -3 -8 -7 -22 -8 -30 -1 -8 -8 -35 -14 -60 -6 -25
-14 -56 -17 -70 -3 -14 -9 -38 -14 -55 -8 -26 -52 -207 -65 -270 -30 -137 -52
-210 -68 -223 -14 -12 -146 -11 -165 1 -7 5 -31 42 -53 83 -39 71 -42 74 -77
74 -25 0 -33 -3 -23 -9 7 -5 21 -8 30 -6 17 2 46 -35 78 -102 l21 -42 -117 5
c-102 5 -118 9 -135 28 -17 20 -28 21 -245 24 -124 2 -229 7 -233 10 -9 9 6
250 17 276 6 13 4 17 -5 14 -16 -5 -15 -2 -24 -152 -7 -113 -18 -162 -34 -152
-4 3 -35 -8 -67 -24 -33 -16 -62 -27 -64 -24 -4 4 12 240 26 389 3 33 3 58 0
55 -3 -3 -8 -39 -12 -80 -3 -41 -10 -115 -16 -165 -5 -49 -10 -116 -11 -148
-1 -34 -7 -62 -15 -69 -12 -10 -99 -7 -213 6 -19 3 -62 8 -95 12 -58 6 -61 8
-82 50 -24 45 -29 69 -15 60 5 -3 56 -8 113 -12 57 -3 112 -8 121 -10 10 -1
18 1 18 7 0 5 -21 9 -47 9 -76 0 -216 19 -227 30 -7 7 -5 10 4 10 9 0 6 6 -8
16 -18 12 -22 25 -22 70 l0 54 42 0 c53 0 46 6 -14 12 l-48 6 0 -61 c0 -41 6
-70 19 -91 10 -17 26 -53 35 -81 9 -27 20 -56 25 -63 5 -9 59 -21 142 -33 197
-28 219 -26 317 21 l82 40 255 0 255 0 11 -24 c10 -22 17 -23 147 -29 76 -4
171 -10 212 -13 122 -10 118 -17 201 326 146 604 220 927 225 985 7 86 -5 104
-96 135 -41 14 -108 41 -147 59 l-73 34 0 87 c0 79 2 88 20 93 41 11 17 105
-36 141 -10 7 -36 19 -56 25 -26 9 -39 20 -46 41 -13 35 -34 47 -102 56 -39 5
-51 4 -46 -5z"/>
<path d="M550 1636 c0 -267 3 -487 8 -489 4 -3 7 213 6 479 l0 483 85 4 86 3
-92 2 -93 2 0 -484z"/>
<path d="M813 2113 c26 -2 67 -2 90 0 23 2 2 3 -48 3 -49 0 -68 -1 -42 -3z"/>
<path d="M1305 2001 c-54 -14 -113 -50 -138 -83 -28 -38 -46 -73 -23 -43 40
50 69 74 111 94 101 47 260 18 316 -59 12 -16 27 -26 32 -23 6 3 7 1 3 -5 -9
-14 23 -64 36 -56 5 3 8 0 7 -7 -4 -22 11 -60 22 -54 5 4 9 1 9 -4 0 -6 -3
-11 -7 -11 -5 0 -8 -49 -7 -110 0 -60 -2 -107 -6 -105 -4 2 -14 -10 -22 -28
-26 -54 -70 -99 -123 -124 -35 -18 -41 -23 -20 -18 85 18 168 101 199 200 50
157 -26 331 -177 405 -66 32 -157 46 -212 31z m385 -371 c0 -33 -3 -60 -7 -60
-5 0 -6 27 -5 60 5 77 12 77 12 0z"/>
<path d="M1310 1933 c-89 -13 -156 -79 -186 -182 -9 -31 -22 -63 -29 -71 -43
-48 -3 -152 59 -152 18 0 40 -13 64 -37 53 -52 86 -66 156 -66 44 0 73 6 104
23 24 12 47 20 53 17 5 -4 6 2 2 11 -4 12 -3 15 6 10 6 -4 10 -4 9 1 -1 4 6
24 17 43 23 44 37 96 37 135 -2 58 -34 143 -68 177 -18 18 -34 39 -34 45 0 7
-12 16 -27 19 -16 4 -33 11 -40 16 -13 10 -84 17 -123 11z m138 -42 c80 -41
131 -130 132 -226 0 -119 -72 -211 -174 -222 -76 -9 -113 4 -164 55 -34 33
-54 46 -70 43 -13 -1 -34 5 -48 13 -19 13 -24 25 -24 60 0 25 6 48 14 55 8 7
17 28 21 49 30 165 173 244 313 173z"/>
<path d="M1313 1735 c-27 -19 -46 -75 -38 -108 18 -69 103 -94 153 -44 21 22
27 37 27 73 0 38 -5 50 -28 70 -32 28 -82 32 -114 9z m101 -24 c56 -62 -1
-161 -74 -131 -35 14 -54 54 -40 81 6 11 16 17 22 13 7 -5 9 1 5 18 -4 14 -4
28 0 32 14 14 71 5 87 -13z"/>
<path d="M1133 1668 c-29 -37 -24 -91 9 -109 29 -16 56 -1 69 38 11 34 10 38
-15 60 -30 26 -49 29 -63 11z m47 -33 c10 -12 10 -21 2 -40 -14 -31 -30 -32
-41 -3 -17 46 11 77 39 43z"/>
<path d="M848 1577 c-21 -5 -38 -13 -38 -18 0 -5 -7 -9 -15 -9 -23 0 -36 -65
-21 -108 16 -46 48 -69 109 -81 26 -5 46 -7 44 -4 -2 2 11 19 29 37 27 27 34
42 34 73 0 21 -7 48 -15 59 -8 12 -11 25 -7 29 4 5 2 5 -5 1 -6 -3 -14 -2 -17
3 -12 18 -61 27 -98 18z m98 -41 c38 -38 43 -70 19 -115 -43 -84 -169 -51
-182 46 -5 38 -2 45 27 73 46 43 91 41 136 -4z"/>
<path d="M836 1535 c-10 -7 -16 -18 -15 -23 2 -6 12 1 22 14 21 27 19 29 -7 9z"/>
<path d="M900 1545 c0 -2 10 -10 23 -16 20 -11 21 -11 8 4 -13 16 -31 23 -31
12z"/>
<path d="M848 1504 c-14 -31 -1 -59 28 -59 23 0 32 48 13 71 -17 20 -28 17
-41 -12z m37 -14 c11 -17 -5 -31 -19 -17 -14 12 -12 27 4 27 5 0 12 -4 15 -10z"/>
<path d="M926 1443 c-6 -14 -5 -15 5 -6 7 7 10 15 7 18 -3 3 -9 -2 -12 -12z"/>
<path d="M950 1446 c0 -17 -37 -42 -71 -49 -21 -4 -20 -4 7 -6 32 -1 74 29 74
54 0 8 -2 15 -5 15 -3 0 -5 -6 -5 -14z"/>
<path d="M2972 1314 c-52 -359 -199 -648 -452 -892 -30 -29 -84 -74 -120 -100
-36 -25 -74 -54 -84 -64 -11 -10 -28 -21 -39 -24 -11 -3 -41 -18 -66 -33 -81
-48 -288 -129 -346 -137 -5 0 -17 -3 -25 -7 -30 -11 -110 -27 -137 -27 -15 0
-35 -4 -43 -10 -19 -12 62 -11 115 1 22 6 54 12 70 15 17 3 76 21 133 39 492
164 854 553 982 1056 19 73 39 269 28 269 -2 0 -10 -39 -16 -86z"/>
<path d="M9 1373 c-1 -10 -1 -20 -1 -23 16 -323 177 -666 428 -916 195 -193
429 -324 708 -394 61 -16 134 -28 161 -28 57 0 43 12 -25 21 -49 7 -46 6 -169
37 -99 24 -118 32 -280 113 -236 118 -425 283 -564 490 -60 91 -138 252 -175
362 -37 111 -78 300 -73 338 1 9 0 17 -3 17 -3 0 -7 -8 -7 -17z"/>
<path d="M1148 1353 c7 -3 16 -2 19 1 4 3 -2 6 -13 5 -11 0 -14 -3 -6 -6z"/>
<path d="M1100 1316 c-52 -18 -113 -41 -135 -52 l-41 -19 13 -60 12 -60 -5 60
-4 60 140 49 c77 27 142 47 144 45 3 -2 13 -27 24 -54 l20 -50 -137 -48 c-141
-50 -184 -68 -177 -74 2 -2 61 16 131 42 69 25 131 42 137 39 7 -4 8 -2 4 4
-4 7 -1 12 6 12 8 0 22 6 33 13 17 13 17 16 -8 70 -18 40 -31 57 -44 56 -10 0
-61 -15 -113 -33z"/>
<path d="M1181 1311 c-9 -6 -5 -8 13 -8 14 0 26 3 26 8 0 11 -21 11 -39 0z"/>
<path d="M1175 1230 c-3 -6 1 -7 9 -4 18 7 21 14 7 14 -6 0 -13 -4 -16 -10z"/>
<path d="M901 1184 c0 -11 3 -14 6 -6 3 7 2 16 -1 19 -3 4 -6 -2 -5 -13z"/>
<path d="M1922 1135 c0 -16 2 -22 5 -12 2 9 2 23 0 30 -3 6 -5 -1 -5 -18z"/>
<path d="M1775 1090 c3 -5 41 -9 83 -9 68 1 72 2 37 10 -57 11 -127 11 -120
-1z"/>
<path d="M722 1025 c-7 -14 -12 -37 -12 -49 0 -23 5 -24 80 -31 54 -5 80 -11
77 -19 -2 -6 -12 -10 -23 -9 -10 2 -75 7 -144 13 -69 5 -133 11 -144 12 -23 4
-54 -36 -62 -79 -6 -31 -5 -33 22 -33 26 0 26 1 10 13 -17 12 -17 17 -5 42 8
16 20 31 28 33 9 3 11 0 5 -9 -6 -11 -5 -12 7 -2 9 7 34 10 59 8 25 -2 92 -5
150 -7 99 -3 105 -2 105 17 0 16 -9 22 -50 28 -90 15 -95 17 -95 34 0 9 10 27
22 40 21 23 21 23 1 23 -12 0 -25 -10 -31 -25z"/>
<path d="M793 1033 c9 -2 15 -8 13 -11 -4 -6 46 -7 84 -2 27 4 -34 18 -75 18
-22 0 -32 -2 -22 -5z"/>
<path d="M920 1031 c0 -5 22 -7 49 -4 l50 5 3 -33 3 -34 6 38 5 37 -58 0 c-32
0 -58 -4 -58 -9z"/>
<path d="M1700 1006 c0 -2 14 -6 30 -8 17 -3 30 -1 30 4 0 4 -13 8 -30 8 -16
0 -30 -2 -30 -4z"/>
<path d="M1779 999 c-10 -6 -4 -9 19 -9 17 0 32 2 32 4 0 9 -39 13 -51 5z"/>
<path d="M1913 1003 c9 -2 23 -2 30 0 6 3 -1 5 -18 5 -16 0 -22 -2 -12 -5z"/>
<path d="M1530 944 c-18 -30 -30 -58 -27 -61 5 -4 41 56 59 100 15 34 -1 16
-32 -39z"/>
<path d="M1858 983 c7 -3 16 -2 19 1 4 3 -2 6 -13 5 -11 0 -14 -3 -6 -6z"/>
<path d="M653 943 c9 -2 25 -2 35 0 9 3 1 5 -18 5 -19 0 -27 -2 -17 -5z"/>
<path d="M1559 923 c-13 -16 -12 -17 4 -4 16 13 21 21 13 21 -2 0 -10 -8 -17
-17z"/>
<path d="M1667 919 c69 -20 95 -102 48 -153 -70 -76 -170 21 -120 118 9 16 13
31 11 34 -9 8 -46 -62 -46 -87 0 -36 37 -88 71 -100 38 -13 91 6 109 39 16 29
19 92 5 108 -31 39 -51 52 -79 51 l-31 -1 32 -9z"/>
<path d="M1534 884 c-4 -10 -9 -22 -11 -26 -2 -5 0 -8 5 -8 10 0 24 41 17 48
-3 3 -8 -4 -11 -14z"/>
<path d="M1633 885 c-28 -19 -34 -49 -16 -75 14 -20 16 -20 33 -5 14 13 16 23
10 45 -5 18 -4 32 3 39 16 16 -5 14 -30 -4z m9 -67 c-13 -13 -26 8 -17 30 6
16 7 16 17 -1 7 -13 7 -22 0 -29z"/>
<path d="M1385 860 l-100 -6 96 -2 97 -2 11 -46 c12 -45 54 -123 69 -125 4 0
27 -3 52 -5 25 -3 50 -7 57 -9 7 -2 15 0 17 4 3 5 -23 11 -57 14 -49 5 -67 12
-84 32 -25 29 -55 118 -46 140 3 8 1 14 -3 13 -5 -1 -54 -5 -109 -8z"/>
<path d="M1711 854 c0 -11 3 -14 6 -6 3 7 2 16 -1 19 -3 4 -6 -2 -5 -13z"/>
<path d="M1218 853 c12 -2 32 -2 45 0 12 2 2 4 -23 4 -25 0 -35 -2 -22 -4z"/>
<path d="M566 829 c3 -5 33 -9 66 -9 34 0 59 2 57 4 -8 8 -128 13 -123 5z"/>
<path d="M1680 825 c0 -8 5 -15 10 -15 6 0 10 7 10 15 0 8 -4 15 -10 15 -5 0
-10 -7 -10 -15z"/>
<path d="M820 811 c40 -5 45 -9 54 -39 6 -21 5 -45 -2 -67 -5 -19 -7 -35 -2
-35 24 0 27 95 4 128 -12 17 -24 22 -57 20 l-42 -1 45 -6z"/>
<path d="M1947 792 c-53 -55 -16 -173 48 -156 58 16 76 113 30 159 -31 32 -45
31 -78 -3z m82 -24 c19 -34 5 -95 -26 -115 -20 -14 -24 -13 -48 13 -31 34 -33
82 -4 113 26 28 59 24 78 -11z"/>
<path d="M698 793 c6 -2 18 -2 25 0 6 3 1 5 -13 5 -14 0 -19 -2 -12 -5z"/>
<path d="M833 779 c10 -13 13 -36 11 -62 -3 -32 -2 -37 5 -22 14 29 13 79 -1
93 -20 20 -30 14 -15 -9z"/>
<path d="M1843 743 c-3 -10 -8 -22 -10 -28 -3 -5 3 -1 11 9 16 20 21 36 11 36
-3 0 -8 -8 -12 -17z"/>
<path d="M1713 663 c9 -2 23 -2 30 0 6 3 -1 5 -18 5 -16 0 -22 -2 -12 -5z"/>
<path d="M583 653 c15 -2 37 -2 50 0 12 2 0 4 -28 4 -27 0 -38 -2 -22 -4z"/>
<path d="M667 649 c7 -7 15 -10 18 -7 3 3 -2 9 -12 12 -14 6 -15 5 -6 -5z"/>
</g>
</svg>
