<?xml version="1.0" standalone="no"?>
<!DOCTYPE svg PUBLIC "-//W3C//DTD SVG 20010904//EN"
 "http://www.w3.org/TR/2001/REC-SVG-20010904/DTD/svg10.dtd">
<svg version="1.0" xmlns="http://www.w3.org/2000/svg"
 width="300.000000pt" height="296.000000pt" viewBox="0 0 300.000000 296.000000"
 preserveAspectRatio="xMidYMid meet">
<metadata>
Created by potrace 1.10, written by Peter Selinger 2001-2011
</metadata>
<g transform="translate(0.000000,296.000000) scale(0.100000,-0.100000)"
fill="#393737" stroke="none">
<path d="M1774 2667 c-36 -31 -39 -96 -6 -129 l22 -22 0 39 c0 22 7 52 14 68
8 15 11 27 5 27 -19 0 -8 17 19 27 l27 11 -27 1 c-15 1 -39 -9 -54 -22z"/>
<path d="M1860 2676 c0 -2 8 -10 18 -17 15 -13 16 -12 3 4 -13 16 -21 21 -21
13z"/>
<path d="M1900 2610 c0 -7 3 -10 7 -7 3 4 3 10 0 14 -4 3 -7 0 -7 -7z"/>
<path d="M1804 2505 c7 -18 -13 -28 -85 -44 -70 -15 -85 -31 -91 -99 -3 -29
-8 -56 -12 -60 -4 -4 -49 -9 -99 -10 -103 -4 -127 -16 -127 -64 l0 -28 -460 0
-460 0 0 -565 0 -565 145 0 c90 0 145 -4 145 -10 0 -5 -6 -10 -13 -10 -17 0
-37 -42 -37 -75 0 -24 -3 -24 -86 -27 -82 -3 -88 -5 -108 -31 -16 -22 -21 -46
-24 -119 -3 -81 -1 -96 21 -142 13 -28 32 -72 42 -99 19 -54 11 -51 178 -72
178 -23 200 -21 292 24 l80 39 262 -6 c232 -4 263 -7 268 -21 4 -14 36 -19
216 -29 190 -12 213 -11 235 3 14 9 29 26 35 38 23 53 289 1191 295 1262 7 79
-7 104 -71 126 -71 25 -76 24 -59 -8 22 -43 17 -92 -27 -274 -28 -116 -47
-172 -58 -178 -9 -5 -51 -6 -94 -3 l-79 5 6 376 c5 330 7 376 21 375 20 -2 20
22 -1 30 -8 3 -12 2 -9 -4 10 -17 -33 -30 -97 -29 -59 0 -123 15 -88 20 118
15 164 25 190 39 51 28 67 21 81 -34 l7 -31 1 31 c1 17 -9 46 -22 65 -22 32
-37 43 -102 71 -17 8 -32 23 -35 38 -7 30 -37 46 -103 55 -45 7 -49 9 -44 31
3 19 0 24 -15 24 -14 0 -18 -5 -14 -15z m153 -77 c12 -10 14 -26 10 -80 -7
-82 -10 -88 -45 -83 -15 2 -47 4 -71 4 -35 1 -42 4 -33 13 7 7 12 43 12 91 l0
80 56 -6 c30 -3 62 -11 71 -19z m-217 -297 c-80 -4 -380 -5 -667 -4 l-523 3
-3 -508 -2 -507 -3 513 -2 512 673 -2 c369 -1 607 -4 527 -7z m-335 -222 c96
-24 175 -132 175 -240 0 -142 -79 -228 -210 -229 -61 0 -105 21 -147 71 -18
21 -34 29 -57 29 -61 0 -96 77 -60 128 11 15 28 54 38 86 22 71 74 131 131
151 49 17 74 18 130 4z m-480 -349 c4 -6 14 -9 22 -8 9 2 17 -4 19 -12 20 -98
12 -132 -40 -156 -42 -21 -79 -13 -117 26 -63 63 -20 160 71 160 21 0 42 -5
45 -10z m81 -91 c-6 -59 -14 -58 -14 0 0 28 4 48 9 45 5 -2 7 -23 5 -45z m644
-22 c0 -2 -10 -12 -22 -23 l-23 -19 19 23 c18 21 26 27 26 19z m526 -55 c-3
-20 -10 -83 -16 -140 -17 -159 -48 -232 -100 -232 l-30 0 0 208 0 207 76 -3
75 -4 -5 -36z m-999 -49 c-4 -3 -10 -3 -14 0 -3 4 0 7 7 7 7 0 10 -3 7 -7z
m67 -43 c9 -22 16 -47 16 -54 0 -8 -49 -31 -127 -59 -178 -64 -183 -65 -183
-36 0 13 -3 40 -6 60 l-6 35 99 34 c54 19 112 40 128 46 52 20 62 17 79 -26z
m13 18 c-3 -8 -6 -5 -6 6 -1 11 2 17 5 13 3 -3 4 -12 1 -19z m460 -434 c24
-37 22 -90 -5 -116 -12 -13 -22 -17 -22 -11 0 7 5 15 10 18 16 10 12 45 -5 45
-8 0 -15 -5 -15 -12 0 -27 -11 3 -19 51 -8 49 -7 51 15 51 14 0 30 -10 41 -26z
m-112 -24 c-9 -29 3 -60 28 -70 l22 -9 -21 0 c-31 -1 -57 41 -44 74 11 29 24
34 15 5z"/>
<path d="M1306 1725 c-49 -53 -35 -134 28 -160 64 -27 121 16 121 92 0 37 -5
49 -28 69 -38 33 -90 32 -121 -1z"/>
<path d="M1132 1668 c-7 -7 -12 -31 -12 -55 0 -37 4 -45 25 -55 22 -10 29 -9
44 8 11 10 22 28 25 40 12 39 -55 89 -82 62z"/>
<path d="M824 1518 c-4 -7 -3 -8 4 -4 12 7 16 16 8 16 -3 0 -8 -5 -12 -12z"/>
<path d="M851 1516 c-20 -24 -10 -70 16 -74 33 -5 49 32 28 64 -18 28 -28 30
-44 10z"/>
<path d="M2096 2245 c4 -8 8 -15 10 -15 2 0 4 7 4 15 0 8 -4 15 -10 15 -5 0
-7 -7 -4 -15z"/>
<path d="M2105 2210 c3 -5 8 -10 11 -10 3 0 2 5 -1 10 -3 6 -8 10 -11 10 -3 0
-2 -4 1 -10z"/>
<path d="M2092 2180 c0 -14 2 -19 5 -12 2 6 2 18 0 25 -3 6 -5 1 -5 -13z"/>
<path d="M2088 2027 c-3 -14 -1 -24 3 -21 5 3 9 0 9 -6 0 -6 4 -9 9 -5 5 3 16
-1 23 -9 8 -7 30 -17 49 -21 l34 -6 -31 19 c-17 11 -40 23 -53 27 -12 4 -26
16 -30 28 -7 20 -8 19 -13 -6z"/>
<path d="M2230 1950 c8 -5 20 -10 25 -10 6 0 3 5 -5 10 -8 5 -19 10 -25 10 -5
0 -3 -5 5 -10z"/>
</g>
</svg>
