 <svg  version="1.0" xmlns="http://www.w3.org/2000/svg"  width="300.000000pt" height="296.000000pt" viewBox="0 0 300.000000 296.000000"  preserveAspectRatio="xMidYMid meet">  <g transform="translate(0.000000,296.000000) scale(0.050000,-0.050000)" fill="#000000" stroke="none"> <path d="M2878 5913 c-4 -4 -102 -13 -218 -20 -1053 -60 -2110 -880 -2487 -1928 -110 -306 -200 -846 -141 -845 23 1 108 180 108 227 0 22 9 30 23 21 14 -9 18 -5 9 9 -8 13 -7 34 1 48 9 14 19 43 22 65 12 84 66 248 85 260 11 7 20 23 20 36 0 15 -9 12 -21 -6 -17 -25 -20 -23 -14 10 4 22 19 38 33 35 14 -4 19 3 12 15 -14 23 121 349 168 404 18 21 32 44 33 52 0 8 11 33 24 56 13 24 17 50 9 59 -8 8 2 10 21 3 26 -9 35 -2 35 28 0 22 8 35 18 29 10 -6 25 16 32 49 12 55 78 115 115 104 8 -2 15 5 15 16 0 11 -11 20 -25 21 -15 0 -11 11 10 27 19 14 35 36 35 47 0 30 60 49 61 19 2 -25 34 43 35 74 0 10 15 26 32 36 18 10 32 30 32 44 0 14 20 43 43 64 24 21 37 27 29 13 -9 -16 -4 -21 15 -13 17 6 35 24 41 41 7 16 21 24 32 17 11 -7 14 1 8 19 -9 23 -4 28 19 19 23 -8 39 4 52 40 11 29 34 52 51 52 16 0 30 9 30 20 0 11 11 18 25 15 14 -3 23 6 20 20 -3 14 8 25 25 25 16 0 30 9 30 20 0 11 23 20 50 20 29 0 50 11 50 28 0 15 24 43 52 62 29 19 47 24 39 12 -8 -13 1 -22 20 -22 22 0 29 11 21 32 -9 22 -4 29 15 22 15 -6 43 8 62 30 22 26 50 37 82 31 28 -5 51 2 57 18 6 15 29 27 51 27 23 0 41 10 41 21 0 12 8 16 19 10 10 -6 24 -3 30 8 7 10 25 14 42 8 16 -6 29 -2 29 9 0 24 171 86 188 69 7 -6 12 -3 12 8 0 11 11 21 25 22 80 7 179 28 254 55 47 16 92 25 101 20 8 -5 27 4 40 20 13 16 33 25 42 19 10 -6 18 -3 18 8 0 10 20 24 45 31 43 11 158 91 133 92 -6 0 -15 -3 -20 -7z"/> <path d="M5931 5889 c-21 -16 -32 -35 -25 -42 8 -8 14 -7 14 2 0 9 15 4 34 -12 18 -15 27 -17 20 -4 -8 13 -3 28 11 33 17 6 18 16 5 30 -14 15 -32 13 -59 -7z"/> <path d="M3120 5886 c1 -37 34 -58 100 -63 39 -2 73 -14 77 -25 9 -25 103 -66 139 -60 15 2 39 -6 55 -18 15 -13 45 -18 66 -11 40 13 272 -55 318 -93 14 -12 25 -13 25 -4 0 9 11 5 24 -8 13 -13 40 -24 60 -24 20 0 54 -9 76 -20 22 -11 58 -29 81 -41 22 -11 48 -16 58 -10 9 6 22 -4 29 -22 7 -18 19 -27 26 -20 7 7 43 -10 79 -38 37 -28 96 -61 131 -73 35 -13 84 -44 108 -70 27 -29 55 -42 76 -34 19 7 32 5 30 -5 -7 -40 4 -63 37 -75 47 -17 139 -71 121 -72 -8 0 10 -26 40 -57 30 -31 58 -54 62 -50 5 4 38 -24 73 -63 35 -38 72 -70 82 -70 20 -1 147 -150 147 -174 0 -10 16 -32 35 -50 59 -56 83 -91 70 -104 -6 -7 -2 -12 10 -12 29 0 188 -320 172 -346 -8 -11 -3 -14 10 -6 13 8 23 3 23 -11 0 -13 19 -45 43 -70 38 -41 39 -47 10 -59 -44 -16 -42 -44 2 -41 27 2 36 -14 38 -74 2 -42 14 -87 28 -100 19 -18 22 -15 12 13 -7 21 -5 31 7 24 11 -7 20 -43 20 -80 0 -37 9 -73 20 -80 11 -7 20 -21 20 -32 0 -11 -9 -15 -20 -8 -35 22 -22 -72 18 -128 21 -29 45 -87 53 -128 7 -41 29 -95 49 -119 19 -25 41 -83 49 -130 9 -53 25 -85 43 -85 29 0 28 331 -1 470 -230 1087 -1023 1952 -2081 2269 -259 77 -751 134 -750 87z"/> <path d="M3545 5335 c-81 -86 -61 -295 27 -295 25 0 37 -25 30 -65 -5 -32 37 -12 101 49 44 41 53 57 27 47 -105 -42 -211 -7 -138 46 18 13 19 19 25 113 2 30 15 50 33 50 17 0 30 14 30 30 0 71 80 2 116 -100 18 -52 21 -54 22 -14 6 156 -173 247 -273 139z"/> <path d="M3400 4918 c-111 -34 -140 -71 -140 -180 0 -140 -27 -158 -238 -158 -195 0 -242 -25 -242 -127 l0 -53 -920 0 -920 0 0 -1130 0 -1130 265 -1 c971 -2 1135 -40 1135 -269 0 -68 9 -110 22 -110 15 0 20 39 14 119 -5 65 -3 118 3 117 40 -4 43 9 10 45 l-38 42 210 -2 c115 -1 292 1 393 5 196 8 237 -11 164 -73 -21 -18 -38 -45 -38 -60 0 -16 -13 -39 -30 -53 -16 -14 -30 -42 -30 -62 0 -21 -10 -38 -21 -38 -12 0 -16 -9 -8 -21 13 -21 114 122 137 193 11 38 368 37 487 -1 75 -23 445 -67 484 -57 22 6 59 41 82 78 43 70 196 107 174 43 -5 -14 -26 -24 -45 -22 -64 6 -130 -30 -130 -71 0 -51 32 -71 48 -31 6 18 20 26 31 20 25 -16 13 -142 -16 -177 -16 -20 -16 -33 2 -51 19 -19 19 -28 -3 -42 -15 -9 -21 -27 -13 -40 9 -13 -1 -37 -22 -54 -20 -16 -26 -24 -12 -17 14 7 25 3 25 -9 0 -11 -8 -21 -17 -21 -10 0 -15 -36 -12 -80 3 -44 -1 -80 -10 -80 -16 0 -36 -49 -54 -129 -14 -65 -64 -104 -137 -107 -88 -3 -156 -38 -137 -70 9 -14 0 -12 -20 4 -19 15 -66 85 -105 155 -70 124 -74 127 -153 127 -137 0 -443 44 -473 68 -45 35 -101 175 -102 252 l0 70 -335 -3 -335 -2 -5 -78 c-30 -495 -38 -533 -95 -452 l-32 45 -78 -40 c-44 -22 -92 -65 -109 -95 l-29 -55 -1 71 c-1 99 77 920 90 941 6 9 -100 16 -235 15 -135 0 -270 5 -299 13 -62 16 -117 -46 -117 -132 0 -51 4 -52 153 -65 160 -14 178 -19 160 -48 -10 -17 -434 17 -569 46 -106 23 -248 -179 -163 -232 20 -13 21 -18 4 -19 -43 0 -32 -230 15 -316 23 -41 59 -126 82 -189 46 -131 21 -119 365 -164 354 -46 394 -43 585 49 l167 80 511 0 511 0 21 -47 c21 -45 33 -48 295 -60 150 -7 341 -19 424 -25 266 -23 216 -159 709 1944 196 839 195 875 -21 937 -61 18 -192 70 -290 115 l-179 82 0 175 c0 158 4 175 40 185 133 35 3 271 -183 332 -52 17 -80 41 -94 81 -35 102 -363 159 -563 99z m425 -43 c41 -12 75 -29 75 -39 0 -10 -11 -13 -25 -6 -14 7 -9 0 10 -15 23 -20 35 -62 38 -131 2 -56 11 -98 20 -92 41 25 116 26 141 1 15 -14 40 -31 56 -36 24 -8 30 -59 32 -262 1 -201 8 -263 35 -304 19 -28 28 -51 21 -51 -26 0 83 -74 112 -77 315 -26 317 -33 193 -555 -105 -443 -85 -416 -301 -398 l-172 15 0 737 0 738 -585 2 c-322 2 -567 7 -545 12 22 6 49 18 59 28 10 10 45 18 76 18 35 0 77 21 110 53 50 50 69 55 261 63 l207 9 -7 168 -6 168 60 -12 c33 -7 94 -22 135 -34z m63 -1650 c-1 -776 -7 -1054 -24 -1050 -88 18 -304 28 -304 13 0 -40 80 -64 202 -61 118 3 129 -1 134 -41 5 -32 23 -46 70 -52 45 -5 34 -9 -36 -11 -163 -4 -240 17 -348 99 l-103 78 -773 0 c-445 0 -766 7 -755 18 34 31 218 82 264 73 25 -5 70 4 100 20 30 16 66 29 80 29 37 0 110 45 141 85 15 20 35 30 45 24 27 -16 23 46 -9 151 -19 64 -29 79 -35 50 -8 -38 -10 -37 -35 7 -15 29 -17 42 -4 34 12 -7 22 -3 22 10 0 13 -17 19 -37 14 -28 -7 -36 -1 -29 24 7 26 -6 33 -63 33 -39 0 -71 -8 -71 -17 0 -10 -9 -12 -20 -5 -11 7 -20 3 -20 -9 0 -11 -16 -21 -35 -21 -19 0 -60 -13 -91 -29 -30 -16 -50 -21 -43 -10 6 11 -12 8 -41 -5 -39 -18 -56 -18 -67 -1 -8 13 -25 16 -41 6 -18 -11 -20 -20 -4 -30 27 -16 30 -91 4 -91 -10 0 -33 -5 -50 -12 -18 -7 -32 -2 -32 11 0 13 7 19 16 14 9 -6 27 -3 42 6 20 12 20 18 -3 26 -44 17 -133 -60 -96 -84 26 -16 25 -21 -5 -32 -38 -15 -50 -149 -12 -149 12 0 17 13 12 28 -6 15 -5 34 2 41 7 7 24 -21 38 -63 l25 -76 -10 110 -10 110 269 95 c327 116 298 117 347 -10 l39 -105 -282 -102 c-155 -55 -303 -112 -329 -126 -36 -20 -141 -22 -453 -11 l-406 14 3 1018 3 1017 1410 0 1410 0 -2 -1055z m472 -390 c-1 -247 -84 -666 -151 -770 -37 -56 -182 -68 -161 -13 7 17 12 211 12 430 l0 398 150 0 c142 0 150 -2 150 -45z m-2512 -851 c5 -9 37 -15 70 -12 55 4 58 0 41 -43 -9 -26 -10 -52 -2 -57 9 -6 13 -80 10 -166 -3 -86 -6 -191 -5 -233 0 -43 -8 -71 -19 -65 -24 15 -43 -34 -43 -108 0 -32 -9 -63 -20 -70 -11 -7 -20 -34 -20 -61 0 -36 -8 -45 -33 -35 -21 8 -29 5 -20 -8 13 -23 -101 -5 -145 23 -12 7 -22 4 -22 -7 0 -25 -80 -11 -109 20 -15 17 -9 19 24 9 28 -9 45 -5 45 9 0 12 9 17 19 10 34 -21 121 52 121 101 0 25 11 49 24 54 25 8 31 177 8 250 -15 46 -78 64 -152 43 -43 -12 -39 -14 25 -16 105 -3 153 -135 91 -248 -13 -24 -24 -62 -25 -84 -1 -38 -13 -40 -262 -36 -277 5 -460 40 -249 48 61 2 85 8 55 12 -32 5 -50 18 -43 30 8 13 -2 15 -29 7 -52 -17 -58 19 -8 47 25 15 27 21 7 21 -16 1 -23 6 -17 13 6 6 4 37 -5 69 -13 46 -10 63 16 77 38 22 21 32 -76 48 -27 5 63 11 200 15 138 3 214 9 170 12 -135 12 -210 28 -210 46 0 28 65 44 87 22 30 -30 73 -26 73 7 0 39 172 52 208 15 24 -23 30 -21 41 13 7 22 30 44 52 50 22 6 39 27 39 50 0 23 5 55 12 72 8 21 1 32 -21 32 -18 0 -28 -9 -21 -20 7 -11 3 -20 -9 -20 -24 0 -25 5 -9 48 13 33 117 45 136 16z m860 -326 c74 -3 120 -15 126 -32 6 -14 19 -26 29 -26 11 0 14 11 7 25 -7 14 1 8 19 -14 24 -30 25 -42 6 -55 -20 -12 -19 -15 1 -16 15 0 21 -8 15 -18 -6 -10 5 -14 25 -9 40 11 98 -74 75 -111 -7 -12 0 -22 18 -22 18 0 31 -17 31 -42 0 -33 9 -40 40 -32 22 6 40 3 40 -6 0 -39 -467 -75 -530 -42 -39 21 -79 19 -95 -4 -9 -13 -11 3 -4 36 11 56 10 57 -15 17 -22 -36 -30 -39 -52 -15 -14 15 -20 28 -12 28 7 0 5 11 -6 25 -10 14 -12 57 -5 95 8 39 15 54 16 35 2 -19 18 -35 35 -35 25 0 28 6 11 27 -13 15 -17 33 -9 40 7 7 -2 13 -21 13 -36 0 -41 45 -13 110 15 34 17 35 19 5 1 -45 32 -45 76 2 19 20 40 34 46 31 6 -3 63 -8 127 -10z m522 -418 c11 -66 10 -68 -18 -30 -17 22 -31 62 -31 89 -1 70 34 27 49 -59z m285 -18 c14 -1 25 -9 25 -17 0 -21 -138 -15 -160 7 -16 16 6 18 135 10z"/> <path d="M2559 3989 c-159 -49 -379 -308 -379 -448 0 -15 -14 -43 -31 -62 -17 -19 -33 -65 -35 -102 -2 -37 -13 -75 -24 -84 -12 -10 -5 -12 15 -6 27 9 35 0 35 -37 0 -88 64 -191 138 -222 37 -16 62 -34 55 -42 -14 -13 103 -126 131 -126 9 0 16 -12 16 -27 0 -36 90 -81 131 -65 23 9 30 4 23 -16 -27 -70 307 -61 456 13 684 339 203 1450 -531 1224z m335 -206 c394 -203 335 -851 -82 -898 -151 -17 -227 9 -328 110 -77 77 -104 92 -156 88 -121 -11 -192 155 -111 259 21 27 53 101 71 165 81 280 355 405 606 276z m291 -85 c-4 -35 0 -40 13 -20 39 61 121 -176 124 -360 4 -223 -168 -560 -245 -483 -22 22 18 85 53 85 25 0 63 51 55 74 -4 13 8 48 28 78 40 61 43 74 54 228 4 61 0 125 -10 144 -9 18 -20 61 -24 95 -3 33 -20 76 -37 96 -46 51 -68 132 -33 120 15 -5 25 -31 22 -57z"/> <path d="M2614 3465 c-85 -94 -88 -226 -7 -302 182 -171 423 106 251 289 -56 60 -194 67 -244 13z m195 -163 c17 -28 -42 -66 -91 -59 -56 9 -72 51 -24 63 62 16 103 15 115 -4z"/> <path d="M2264 3336 c-48 -48 -30 -195 26 -216 70 -27 105 -7 132 75 34 104 -87 212 -158 141z"/> <path d="M1664 3227 c-26 -6 -42 -21 -38 -34 5 -12 20 -21 33 -18 13 4 18 -3 11 -15 -7 -11 -23 -14 -36 -6 -40 24 -121 15 -129 -15 -7 -24 -4 -24 13 1 34 48 25 3 -10 -51 -18 -27 -28 -66 -23 -86 5 -21 2 -51 -8 -68 -21 -39 -2 -95 33 -95 14 0 37 -28 51 -62 20 -48 35 -60 70 -53 30 6 42 0 36 -15 -14 -37 109 -55 155 -23 21 15 33 31 27 37 -6 6 4 17 21 23 19 7 27 4 20 -7 -7 -11 5 -20 26 -20 53 0 76 72 64 200 -5 61 -2 125 8 142 48 86 -171 197 -324 165z m220 -111 c18 -3 32 -9 30 -15 -2 -6 9 -41 24 -78 91 -216 -153 -371 -321 -204 -131 132 -30 339 152 313 44 -7 96 -14 115 -16z"/> <path d="M1696 3010 c-17 -38 -18 -63 -3 -87 54 -85 147 -15 101 77 -34 67 -70 71 -98 10z"/> <path d="M1633 1555 c-18 -64 -16 -79 7 -65 12 7 16 21 10 30 -6 9 0 24 13 32 17 10 20 -5 13 -54 -6 -37 -5 -86 3 -107 11 -31 18 -20 28 45 20 124 -45 228 -74 119z"/> <path d="M5953 2907 c-7 -8 -13 -36 -13 -63 0 -27 -18 -65 -41 -85 -22 -19 -38 -43 -35 -52 2 -9 -5 -35 -18 -57 -12 -22 -33 -111 -46 -199 -13 -87 -41 -190 -62 -229 -21 -39 -38 -92 -38 -118 0 -25 -18 -83 -39 -128 -22 -45 -35 -89 -29 -99 6 -9 0 -17 -12 -17 -12 0 -17 -8 -12 -17 6 -10 -10 -41 -36 -69 -27 -29 -39 -55 -27 -59 11 -4 6 -21 -13 -40 -18 -19 -33 -38 -33 -44 3 -45 -3 -54 -29 -44 -20 8 -30 -1 -30 -28 0 -49 -70 -182 -93 -177 -9 2 -34 -29 -55 -69 -21 -39 -46 -67 -55 -61 -9 6 -17 1 -17 -10 0 -56 -129 -202 -169 -191 -33 9 -35 8 -11 -9 33 -23 -181 -242 -236 -242 -14 0 -21 -9 -14 -20 7 -11 -7 -20 -30 -20 -23 0 -38 -8 -32 -17 6 -9 -14 -29 -44 -45 -30 -15 -72 -46 -94 -68 -22 -22 -92 -67 -155 -99 -63 -31 -115 -64 -115 -72 0 -7 -40 -25 -90 -39 -49 -14 -90 -32 -90 -40 0 -8 -28 -21 -62 -27 -65 -13 -201 -72 -218 -94 -5 -7 -46 -19 -90 -25 -92 -14 -128 -23 -170 -41 -16 -7 -52 -15 -80 -18 -27 -3 -54 -10 -60 -17 -5 -6 -59 -35 -120 -64 -60 -29 -96 -53 -80 -54 27 0 27 -3 0 -22 -25 -18 -25 -20 5 -11 19 6 95 17 170 24 1254 111 2474 1355 2537 2586 5 106 14 218 18 248 9 52 -8 71 -37 42z"/> <path d="M28 2617 c65 -1234 1283 -2475 2537 -2586 75 -7 151 -18 170 -24 28 -8 29 -7 7 9 -23 16 -21 22 10 29 27 6 15 15 -42 32 -44 13 -97 37 -119 53 -21 17 -61 30 -88 30 -27 0 -59 13 -71 29 -12 16 -85 39 -162 51 -77 12 -170 40 -206 61 -37 21 -80 39 -96 39 -17 0 -24 10 -17 22 10 15 1 15 -29 -1 -40 -22 -52 -11 -45 42 1 7 -16 8 -38 3 -21 -6 -39 -1 -39 11 0 11 -18 17 -41 13 -22 -4 -35 1 -28 11 6 10 -5 19 -26 19 -21 0 -57 18 -81 41 -24 22 -44 34 -44 26 0 -8 -20 5 -45 28 -25 23 -58 45 -74 49 -16 3 -52 26 -80 51 -28 25 -62 45 -76 45 -15 0 -31 14 -38 30 -6 17 -23 30 -36 30 -14 0 -48 20 -75 45 -28 25 -92 81 -143 125 -51 44 -93 88 -93 98 0 10 -38 61 -85 113 -151 169 -220 274 -201 306 7 10 2 13 -11 5 -14 -9 -30 4 -41 33 -10 25 -33 59 -51 74 -23 19 -30 46 -22 89 9 48 7 53 -8 22 -18 -40 -31 -15 -22 47 2 15 -5 22 -16 15 -10 -6 -24 11 -31 38 -8 29 -27 50 -47 50 -30 1 -31 3 -5 20 22 14 23 19 4 20 -15 0 -21 9 -14 20 7 11 1 20 -12 20 -14 0 -19 6 -12 13 7 6 1 40 -14 75 -14 34 -25 67 -25 72 0 6 -14 33 -32 60 -18 28 -38 104 -46 170 -19 171 -26 199 -49 207 -11 3 -20 33 -20 65 0 32 -7 58 -15 58 -9 0 -27 19 -42 42 -21 35 -21 40 1 29 14 -8 12 -2 -5 13 -18 14 -43 44 -57 66 -20 33 -22 5 -14 -153z"/> <path d="M3265 1911 c-69 -13 -128 -28 -131 -33 -83 -113 -89 -313 -11 -333 20 -5 37 -22 37 -37 0 -16 13 -28 28 -28 16 0 32 -10 36 -22 24 -72 313 -23 315 55 1 12 14 33 31 47 16 13 25 32 20 41 -6 8 1 20 15 26 20 8 20 10 0 11 -14 1 -25 24 -25 51 0 36 8 47 30 38 42 -16 37 6 -11 54 -22 22 -49 35 -60 28 -11 -6 -18 0 -14 14 3 14 -15 35 -40 46 -25 11 -41 32 -36 46 12 30 -17 29 -184 -4z m170 -142 c99 -113 25 -289 -121 -289 -97 0 -189 117 -166 210 40 160 182 199 287 79z"/> <path d="M3277 1784 c-58 -11 -81 -115 -37 -168 33 -41 41 -43 66 -16 42 43 18 194 -29 184z"/> <path d="M3894 1584 c-117 -122 -27 -359 115 -304 103 39 128 225 42 311 -63 63 -91 62 -157 -7z"/> </g> </svg> 