 <svg  version="1.0" xmlns="http://www.w3.org/2000/svg"  width="900.000000pt" height="888.000000pt" viewBox="0 0 900.000000 888.000000"  preserveAspectRatio="xMidYMid meet">  <g transform="translate(0.000000,888.000000) scale(0.100000,-0.100000)" fill="#ffffff" stroke="none"> <path d="M3801 8819 c-14 -5 -45 -10 -70 -10 -26 0 -71 -7 -101 -14 -103 -26 -115 -28 -137 -26 -13 1 -23 -2 -23 -8 0 -6 -19 -11 -42 -11 -24 0 -56 -7 -72 -15 -15 -8 -40 -15 -55 -15 -14 -1 -37 -7 -51 -15 -14 -8 -37 -14 -53 -15 -15 0 -44 -9 -64 -20 -21 -11 -45 -20 -54 -20 -9 0 -30 -7 -45 -15 -16 -8 -39 -15 -51 -15 -12 0 -25 -4 -28 -10 -3 -5 -16 -10 -29 -10 -12 0 -31 -7 -42 -15 -10 -8 -29 -15 -40 -15 -12 0 -27 -6 -33 -14 -7 -8 -27 -18 -44 -22 -17 -3 -38 -10 -47 -14 -8 -4 -44 -21 -80 -38 -282 -132 -570 -288 -626 -340 -11 -11 -30 -22 -41 -26 -11 -4 -32 -17 -47 -31 -14 -13 -33 -26 -43 -29 -10 -3 -30 -17 -45 -31 -15 -13 -44 -37 -66 -52 -138 -98 -334 -266 -491 -423 -98 -97 -301 -325 -301 -337 0 -5 -20 -29 -45 -55 -25 -26 -45 -50 -45 -53 0 -4 -91 -132 -128 -180 -4 -5 -29 -44 -56 -85 -27 -41 -57 -87 -67 -102 -11 -15 -19 -31 -19 -36 0 -5 -6 -14 -13 -20 -7 -6 -28 -42 -47 -79 -19 -37 -41 -72 -47 -76 -7 -4 -13 -13 -13 -19 0 -8 -73 -162 -109 -228 -24 -45 -31 -61 -31 -72 -1 -7 -9 -31 -20 -53 -11 -22 -19 -45 -20 -51 0 -6 -7 -17 -15 -24 -8 -7 -15 -23 -15 -36 0 -12 -4 -26 -10 -29 -5 -3 -10 -14 -10 -23 0 -9 -7 -30 -15 -46 -8 -15 -15 -36 -15 -45 0 -9 -9 -33 -20 -54 -11 -20 -20 -45 -20 -56 0 -10 -7 -32 -15 -47 -8 -16 -15 -36 -15 -45 0 -9 -7 -30 -15 -45 -8 -16 -15 -45 -15 -65 0 -20 -6 -42 -13 -48 -8 -6 -14 -31 -15 -56 0 -25 -5 -51 -10 -58 -5 -7 -13 -37 -17 -67 -4 -30 -11 -60 -17 -67 -5 -6 -12 -51 -15 -100 -3 -48 -9 -92 -13 -98 -11 -14 -12 -255 -2 -255 18 0 37 55 63 180 6 30 15 63 20 72 5 10 9 32 9 50 0 18 7 69 16 113 9 44 20 98 24 120 5 22 17 74 29 115 11 41 23 86 26 100 4 14 13 39 21 57 8 17 14 36 14 41 0 20 61 197 85 250 14 29 25 61 25 72 0 11 18 56 40 99 22 43 40 83 40 89 0 19 152 318 193 381 13 20 43 70 67 111 24 41 56 93 72 115 16 22 51 72 79 110 134 187 256 336 483 585 23 26 124 115 186 166 19 16 62 52 94 81 33 29 64 53 69 53 6 0 26 16 45 36 42 43 186 152 222 167 14 6 43 26 65 43 41 32 214 140 250 155 11 5 52 27 90 48 189 108 518 252 700 307 33 10 66 22 73 27 7 6 50 18 95 27 88 19 260 62 342 85 28 8 82 19 120 25 39 6 84 16 101 21 17 5 68 14 114 20 46 5 95 16 109 23 14 7 38 16 54 20 15 3 27 11 27 16 0 13 -267 12 -299 -1z"/> <path d="M4130 8820 c0 -5 17 -10 38 -9 33 1 34 2 12 9 -36 11 -50 11 -50 0z"/> <path d="M4790 8820 c-11 -7 -4 -10 25 -9 31 0 36 2 20 9 -26 11 -28 11 -45 0z"/> <path d="M4890 8821 c0 -17 117 -61 166 -62 27 0 65 -6 84 -11 19 -6 77 -19 130 -28 418 -76 841 -212 1165 -377 49 -25 104 -52 120 -61 17 -8 44 -22 60 -30 17 -8 39 -23 50 -33 11 -10 37 -25 58 -34 21 -9 60 -30 86 -48 61 -41 79 -53 116 -73 17 -9 48 -32 71 -50 23 -19 46 -34 51 -34 11 0 59 -35 138 -100 28 -22 78 -64 113 -93 35 -29 87 -70 116 -92 70 -53 325 -309 415 -415 39 -47 91 -107 116 -135 39 -44 75 -92 194 -260 58 -81 127 -192 157 -251 17 -34 41 -72 53 -85 20 -21 35 -50 85 -159 9 -19 27 -55 41 -79 14 -24 25 -52 25 -61 0 -9 13 -36 29 -61 16 -24 45 -91 65 -149 20 -58 43 -118 50 -135 16 -36 50 -135 77 -225 11 -36 26 -85 33 -110 8 -25 22 -79 31 -120 9 -41 23 -95 31 -119 8 -25 14 -56 14 -69 0 -14 4 -41 9 -61 18 -71 34 -146 37 -171 8 -69 18 -117 30 -135 8 -12 16 -53 20 -93 4 -39 11 -69 16 -66 10 7 10 345 -1 359 -5 5 -11 50 -14 98 -3 49 -10 94 -15 100 -6 7 -13 37 -17 67 -4 30 -11 60 -16 66 -5 6 -11 32 -13 59 -3 26 -10 53 -15 58 -6 6 -11 24 -11 39 0 16 -7 45 -15 65 -8 19 -15 43 -15 52 0 9 -7 29 -15 45 -8 15 -15 38 -15 50 0 12 -6 31 -14 42 -8 11 -17 37 -21 57 -4 21 -11 40 -16 43 -5 3 -9 12 -9 21 0 14 -12 44 -45 118 -8 17 -23 53 -35 80 -11 28 -25 58 -30 67 -6 10 -10 27 -10 38 0 11 -7 23 -15 26 -8 4 -15 10 -15 16 0 11 -100 221 -109 228 -4 3 -12 16 -18 30 -7 14 -26 48 -43 75 -16 28 -33 57 -37 65 -4 8 -14 26 -24 40 -9 14 -38 59 -65 100 -27 41 -52 80 -56 85 -37 47 -128 176 -128 180 0 3 -20 26 -45 52 -25 25 -45 50 -45 55 0 10 -181 215 -280 317 -36 37 -105 103 -155 147 -49 45 -110 99 -135 121 -56 51 -157 130 -231 183 -31 21 -63 45 -70 52 -21 20 -123 88 -132 88 -4 0 -19 10 -32 23 -14 12 -46 33 -72 47 -26 14 -65 37 -87 53 -21 15 -43 27 -48 27 -5 0 -14 5 -21 11 -16 14 -140 80 -247 130 -236 113 -273 129 -293 129 -8 0 -20 7 -27 15 -7 8 -22 15 -34 15 -11 0 -30 7 -40 15 -11 8 -30 15 -42 15 -13 0 -26 5 -29 10 -3 6 -16 10 -28 10 -12 0 -34 6 -49 14 -15 8 -42 17 -60 21 -18 4 -42 14 -53 21 -11 8 -33 14 -50 14 -16 1 -41 7 -55 15 -14 8 -39 14 -56 15 -16 0 -35 5 -41 11 -5 5 -36 13 -67 16 -31 3 -56 10 -56 15 0 4 -12 8 -27 7 -16 0 -59 7 -98 17 -38 9 -99 18 -134 21 -35 2 -72 8 -82 13 -22 12 -279 13 -279 1z"/> <path d="M5387 8042 c-84 -30 -131 -91 -159 -207 -13 -53 -13 -66 0 -105 33 -102 84 -180 117 -180 28 0 25 21 -9 66 -45 59 -60 112 -51 183 12 106 60 181 132 205 79 27 142 19 186 -25 29 -29 77 -128 83 -172 9 -65 13 -75 24 -57 18 29 10 103 -15 145 -14 22 -28 47 -31 55 -11 24 -67 80 -80 80 -7 0 -14 5 -16 11 -6 19 -127 20 -181 1z"/> <path d="M5577 7587 c-33 -16 -42 -37 -17 -37 11 0 65 49 59 53 -2 2 -21 -6 -42 -16z"/> <path d="M5380 7546 c0 -18 25 -66 37 -70 12 -5 13 -9 3 -21 -11 -13 -8 -15 19 -15 24 0 31 4 31 19 0 11 11 33 25 49 14 17 25 33 25 36 0 3 -31 6 -70 6 -38 0 -70 -2 -70 -4z"/> <path d="M5274 7400 c-39 -4 -80 -13 -92 -19 -11 -6 -34 -11 -51 -11 -29 0 -59 -11 -146 -51 -83 -40 -94 -63 -104 -229 -15 -227 -19 -230 -354 -230 -183 0 -225 -3 -255 -17 -44 -19 -82 -52 -82 -69 0 -6 -7 -17 -16 -25 -12 -10 -15 -29 -13 -86 l4 -74 -1380 1 -1380 0 2 -1686 c1 -927 3 -1687 5 -1689 2 -2 221 -6 488 -9 842 -11 1043 -15 1115 -21 39 -3 89 -7 113 -9 45 -4 61 17 21 27 -40 11 -9 24 73 33 99 10 352 10 898 1 223 -4 565 -9 760 -12 246 -3 362 -8 377 -16 31 -17 38 -6 18 25 -10 15 -30 28 -48 31 -18 3 -156 5 -307 4 -151 -1 -401 1 -555 4 -420 9 -1272 9 -1340 1 -33 -3 -77 -6 -99 -5 -21 1 -46 -5 -55 -13 -23 -20 -389 -35 -511 -21 -93 10 -134 29 -89 40 13 3 136 7 272 9 136 2 251 6 254 10 17 16 -24 20 -220 23 -200 2 -555 10 -855 19 -73 2 -138 6 -144 10 -7 4 -8 26 -3 63 4 31 8 720 10 1531 l4 1475 2090 5 c1149 3 2093 8 2097 13 4 4 -2 7 -14 7 -28 0 -36 15 -16 30 8 7 13 19 10 26 -7 19 17 24 125 24 l99 0 13 -33 c12 -26 14 -216 14 -1068 0 -767 3 -1041 12 -1057 9 -17 9 -27 -1 -44 -10 -18 -14 -140 -16 -528 -4 -564 2 -728 25 -737 8 -3 19 -1 25 5 8 8 12 195 15 629 l3 618 228 -3 c194 -3 229 -6 240 -20 6 -9 10 -23 7 -31 -2 -9 -5 -59 -6 -111 -2 -52 -7 -106 -13 -120 -5 -14 -13 -72 -17 -130 -4 -58 -12 -136 -18 -175 -5 -38 -15 -108 -21 -155 -18 -134 -26 -173 -43 -205 -9 -16 -17 -38 -17 -47 0 -9 -8 -31 -17 -50 -31 -62 -33 -68 -33 -92 0 -13 -6 -26 -14 -29 -17 -7 -28 -47 -13 -47 17 0 50 56 73 120 10 30 25 61 31 68 7 7 13 23 13 35 0 12 6 39 14 62 26 75 35 120 40 195 3 41 10 93 15 115 6 22 11 87 11 145 0 59 8 136 17 175 9 39 17 117 19 173 2 82 6 108 20 123 9 11 14 22 11 26 -14 13 -100 19 -303 22 -115 1 -212 6 -217 10 -6 6 -8 1668 -3 2156 l1 70 -585 -3 c-408 -2 -635 -7 -750 -17 -91 -8 -234 -16 -317 -17 -146 -2 -179 -9 -131 -27 34 -12 5 -23 -62 -22 -39 0 -62 -5 -70 -15 -15 -17 -36 -18 -46 -2 -11 17 26 38 67 38 44 0 57 14 35 39 -20 22 -20 40 0 90 9 23 31 50 53 66 21 14 43 37 49 50 7 14 20 25 29 26 10 0 70 2 133 3 148 4 286 21 372 46 59 18 98 21 295 22 126 1 242 -2 260 -6 19 -4 34 -3 38 4 8 13 8 447 0 461 -4 5 -14 5 -26 -2 -31 -16 -269 -18 -269 -1 0 20 73 45 140 46 39 2 75 7 81 13 13 13 3 34 -14 32 -7 -1 -44 -5 -83 -9z m-19 -144 c115 -4 124 -6 133 -23 5 -10 6 -63 2 -118 -3 -55 -3 -112 1 -126 5 -20 1 -33 -17 -53 -21 -22 -34 -26 -82 -27 -31 -1 -75 -3 -97 -4 -104 -6 -229 -5 -237 3 -14 14 -17 163 -3 226 20 95 31 116 59 116 14 0 28 5 32 11 5 8 30 9 83 4 42 -4 99 -8 126 -9z m-772 -732 c66 -11 39 -23 -50 -21 -59 1 -88 6 -91 15 -4 13 73 17 141 6z m274 -21 c3 -8 -6 -10 -31 -6 -22 3 -42 1 -51 -7 -8 -7 -22 -10 -30 -6 -23 8 -18 34 8 38 37 5 100 -6 104 -19z m-3167 8 c0 -5 -7 -12 -16 -15 -15 -6 -15 -8 -1 -24 15 -17 14 -20 -14 -45 -29 -25 -30 -31 -29 -94 0 -38 0 -79 0 -93 -2 -67 0 -230 2 -270 4 -69 -2 -854 -7 -858 -2 -3 0 -12 4 -21 5 -9 7 -86 5 -171 -5 -227 -8 -275 -19 -278 -18 -5 -24 60 -20 218 13 479 15 782 6 799 -6 11 -11 128 -13 277 -2 298 1 394 14 411 6 7 5 19 -1 32 -20 36 -13 90 14 116 23 24 75 35 75 16z m95 -1 c7 -11 -35 -23 -61 -18 -9 1 -19 9 -22 16 -5 15 74 17 83 2z m2925 -6 c0 -11 -8 -14 -27 -12 -39 4 -42 28 -4 28 21 0 31 -5 31 -16z m240 -4 c12 -7 12 -12 2 -22 -14 -14 -42 -2 -50 20 -4 14 27 16 48 2z m720 1 c0 -22 -82 -27 -100 -6 -11 13 -5 15 44 15 31 0 56 -4 56 -9z m120 -11 c-10 -19 -12 -19 -35 -4 -33 21 -32 24 10 24 33 0 35 -2 25 -20z m-4170 -1897 c0 -20 -3 -24 -11 -16 -7 7 -9 19 -6 27 10 24 17 19 17 -11z m12 -75 c1 -18 1 -42 0 -53 -1 -11 -2 -210 -2 -442 1 -241 -3 -423 -8 -423 -14 0 -35 46 -35 77 0 157 7 360 14 369 5 6 5 24 -1 41 -8 20 -8 38 0 57 13 36 13 99 -1 113 -7 7 -9 29 -4 60 3 26 9 90 11 141 5 88 22 128 26 60z m-1 -960 c0 -2 3 -56 5 -120 3 -96 1 -118 -10 -118 -25 0 -36 57 -29 151 4 65 10 89 19 89 8 0 14 -1 15 -2z"/> <path d="M5510 7391 l-35 -7 35 -16 c19 -9 76 -21 125 -28 186 -23 233 -50 261 -146 24 -85 60 -121 139 -135 162 -30 281 -135 331 -294 25 -79 11 -121 -49 -139 -28 -9 -10 -26 27 -26 52 0 66 24 66 112 0 67 -4 84 -35 144 -40 79 -53 96 -115 144 -57 44 -103 70 -127 70 -10 0 -27 7 -37 15 -11 8 -29 15 -40 15 -10 0 -35 7 -55 16 -39 17 -71 70 -71 117 0 36 -55 95 -105 114 -22 8 -69 19 -105 23 -36 5 -83 13 -105 19 -44 12 -53 12 -105 2z"/> <path d="M6259 6538 c0 -18 0 -136 0 -262 2 -220 2 -230 24 -257 12 -15 28 -28 36 -28 21 -1 105 -44 114 -58 4 -7 17 -13 27 -13 19 0 40 -9 202 -84 42 -20 83 -36 91 -36 28 0 97 -37 117 -62 11 -15 23 -48 26 -75 3 -26 8 -55 10 -63 9 -27 24 12 18 47 -8 44 3 73 28 73 35 0 145 -57 183 -96 47 -47 70 -118 61 -194 -20 -187 -39 -280 -67 -332 -5 -10 -9 -41 -9 -70 -1 -29 -7 -71 -15 -93 -8 -22 -15 -49 -15 -61 0 -11 -3 -24 -7 -28 -5 -4 -9 -17 -9 -29 -2 -33 -21 -118 -33 -150 -6 -16 -11 -42 -11 -58 0 -16 -7 -46 -16 -67 -15 -37 -30 -101 -41 -177 -3 -22 -12 -49 -19 -60 -7 -11 -18 -52 -24 -90 -13 -89 -24 -135 -38 -162 -7 -12 -12 -39 -12 -60 0 -21 -6 -58 -15 -83 -8 -25 -22 -81 -30 -125 -9 -44 -25 -105 -36 -136 -10 -31 -19 -70 -19 -87 0 -17 -4 -34 -10 -37 -5 -3 -10 -21 -10 -38 0 -18 -7 -42 -15 -54 -8 -12 -19 -50 -24 -85 -5 -35 -16 -81 -25 -102 -9 -21 -13 -42 -10 -48 3 -5 1 -15 -6 -23 -6 -7 -12 -34 -14 -59 -1 -26 -8 -52 -14 -58 -7 -7 -12 -22 -12 -34 0 -12 -7 -28 -16 -35 -11 -9 -14 -23 -10 -47 3 -22 -2 -56 -14 -91 -11 -30 -20 -69 -20 -86 0 -16 -9 -59 -20 -94 -10 -35 -17 -68 -15 -72 3 -4 -1 -20 -9 -36 -29 -59 -56 -160 -56 -208 0 -28 -9 -69 -20 -94 -11 -24 -20 -55 -20 -70 -1 -34 -24 -126 -43 -171 -8 -19 -18 -64 -22 -100 -4 -36 -15 -90 -25 -120 -10 -30 -23 -80 -30 -110 -10 -40 -22 -63 -47 -86 -18 -17 -33 -38 -33 -47 0 -9 -6 -17 -14 -17 -8 0 -16 -6 -18 -12 -6 -17 -285 -23 -305 -7 -9 8 -19 7 -38 -5 -45 -29 -75 -21 -130 37 -27 30 -59 71 -70 92 -11 21 -39 67 -62 102 -24 35 -43 66 -43 70 0 4 -19 46 -42 95 l-43 88 -40 -6 c-22 -4 -42 -8 -44 -9 -9 -9 13 -25 34 -25 19 0 32 -14 65 -75 23 -41 47 -81 54 -87 31 -33 83 -147 89 -196 4 -34 3 -50 -4 -46 -5 3 -15 1 -22 -4 -13 -11 -99 -8 -117 3 -7 4 -104 9 -218 11 -249 4 -282 10 -345 69 -26 25 -55 45 -65 45 -10 0 -28 8 -42 17 -26 18 -80 20 -485 15 -260 -4 -760 5 -813 14 -24 4 -46 13 -49 21 -3 8 -1 73 6 145 6 71 8 135 5 140 -14 23 -27 -31 -34 -141 -6 -93 -12 -123 -30 -154 -27 -46 -47 -57 -99 -57 -22 0 -55 -6 -73 -14 -18 -8 -49 -21 -68 -29 -19 -9 -54 -21 -77 -29 -24 -7 -43 -16 -43 -20 0 -3 -19 -20 -42 -37 -52 -38 -68 -29 -68 40 0 26 -5 51 -10 54 -5 3 -10 3 -11 -2 -1 -4 -3 -26 -5 -48 -2 -22 -10 -45 -19 -51 -8 -6 -15 -18 -15 -27 0 -9 -14 -20 -32 -26 -43 -14 -330 -21 -382 -9 -22 5 -72 13 -111 19 -101 14 -113 16 -180 28 -33 6 -81 11 -106 11 -26 0 -62 6 -81 14 -21 9 -50 12 -75 9 -31 -4 -53 0 -85 16 -25 11 -50 21 -56 21 -7 0 -12 7 -12 16 0 9 -11 29 -25 46 -14 16 -25 37 -25 46 0 8 -10 35 -21 60 -20 41 -21 45 -5 60 13 13 37 17 99 18 45 0 100 2 122 3 36 3 37 4 15 11 -14 4 -58 8 -99 9 -112 2 -241 50 -241 90 0 5 10 11 22 13 31 4 34 26 4 38 -14 5 -32 23 -41 40 -8 16 -19 30 -24 30 -11 0 -24 102 -26 204 -2 89 8 106 61 106 45 0 44 16 -2 23 -20 3 -45 13 -54 22 -10 9 -29 15 -42 13 l-23 -3 -3 -186 c-2 -157 0 -188 13 -199 8 -7 15 -18 15 -24 0 -6 13 -25 30 -43 29 -30 73 -137 89 -216 5 -21 14 -44 20 -50 6 -6 11 -20 11 -30 0 -10 6 -31 14 -45 8 -15 23 -49 34 -77 20 -49 22 -50 84 -67 35 -9 83 -17 108 -17 25 0 88 -7 140 -15 52 -8 129 -20 170 -26 41 -7 118 -16 170 -21 52 -4 118 -13 145 -18 78 -15 283 -13 330 4 22 8 48 15 57 15 9 0 36 12 60 28 72 45 131 76 263 137 120 55 105 53 315 45 107 -5 448 -8 758 -8 588 0 592 0 592 -43 0 -10 9 -33 20 -52 20 -34 21 -34 112 -41 50 -3 155 -6 232 -6 78 0 184 -5 236 -11 52 -5 163 -14 245 -19 83 -5 214 -14 292 -20 137 -10 144 -10 190 11 59 27 143 105 143 134 0 11 4 25 9 30 5 6 17 39 26 75 17 64 23 91 45 200 7 30 18 75 26 100 8 25 14 52 14 61 0 9 7 30 15 45 8 16 15 41 15 55 0 15 7 46 15 69 8 23 15 56 15 72 0 16 4 37 10 47 5 10 14 43 19 72 21 110 33 165 43 183 5 10 14 39 18 65 20 102 33 158 46 194 8 20 14 50 14 66 0 16 7 45 15 64 8 20 15 50 15 66 0 16 4 32 9 36 5 3 13 31 17 63 3 31 11 65 16 75 5 10 13 39 18 65 15 75 37 165 49 195 6 16 11 42 11 58 0 17 5 40 12 52 6 12 15 42 19 67 10 57 27 135 40 177 6 18 14 54 19 80 29 147 52 248 76 323 8 25 14 58 14 73 0 16 5 37 11 48 6 11 14 41 19 67 5 26 16 74 24 107 9 33 20 83 26 110 6 28 18 73 26 101 8 28 14 62 14 76 0 14 7 42 15 61 8 20 15 50 15 67 0 17 5 41 11 52 6 11 15 44 20 72 9 55 22 122 45 227 19 89 18 248 -1 273 -8 11 -15 26 -15 34 0 19 -68 102 -83 102 -7 1 -30 9 -52 20 -22 11 -51 20 -65 20 -14 0 -34 7 -44 15 -11 8 -31 15 -45 15 -14 0 -35 7 -45 15 -11 8 -35 15 -53 15 -18 0 -33 4 -33 9 0 5 -10 12 -22 16 -13 3 -34 11 -48 17 -14 5 -38 16 -55 23 -16 7 -77 35 -135 63 -58 28 -140 66 -182 86 l-77 35 0 218 c0 120 0 235 -1 256 0 45 -20 50 -21 5z"/> <path d="M5842 4878 c0 -849 3 -1560 6 -1580 5 -41 15 -48 28 -20 4 9 9 449 10 977 0 528 1 1032 2 1120 0 88 -2 304 -5 480 -3 176 -4 369 -3 428 2 103 -6 137 -31 137 -5 0 -8 -672 -7 -1542z"/> <path d="M3985 6000 c-16 -4 -48 -8 -71 -9 -22 0 -49 -8 -60 -16 -10 -8 -28 -15 -38 -15 -10 0 -41 -13 -68 -30 -26 -16 -54 -30 -62 -30 -16 0 -67 -46 -59 -54 7 -6 83 31 83 42 0 7 70 32 92 32 7 0 27 7 43 16 17 9 76 20 135 25 58 5 111 12 119 15 13 4 100 -12 196 -37 22 -6 58 -14 80 -19 102 -21 200 -78 291 -168 75 -73 124 -129 124 -142 0 -5 18 -30 40 -55 22 -26 47 -60 55 -76 9 -16 20 -29 25 -29 6 0 10 -10 10 -23 0 -12 6 -31 14 -42 7 -11 19 -38 26 -60 15 -47 29 -67 41 -59 5 3 9 -2 9 -10 0 -9 -5 -16 -11 -16 -8 0 -9 -13 -4 -42 13 -79 6 -444 -10 -483 -8 -19 -15 -44 -15 -55 0 -36 -91 -211 -151 -291 -58 -76 -147 -164 -184 -180 -11 -5 -33 -18 -50 -29 -29 -19 -47 -28 -72 -36 -7 -2 -13 -8 -13 -13 0 -6 12 -6 33 1 17 5 46 13 62 18 79 21 202 112 299 220 102 114 155 227 205 435 41 171 1 489 -80 635 -4 8 -17 34 -29 57 -12 23 -34 58 -51 79 -16 20 -29 40 -29 43 0 12 -167 177 -220 218 -57 43 -188 113 -212 113 -7 0 -22 6 -33 14 -11 7 -33 16 -50 19 -16 3 -48 10 -70 15 -126 31 -268 40 -340 22z m1067 -1179 c-8 -48 -10 -36 -9 79 0 132 0 133 9 56 5 -47 5 -101 0 -135z"/> <path d="M4047 5814 c-4 -4 -23 -8 -44 -9 -92 -7 -205 -26 -232 -39 -16 -9 -31 -12 -35 -9 -3 4 -16 -3 -29 -14 -12 -12 -33 -23 -47 -25 -17 -2 -25 -9 -25 -23 0 -13 -6 -19 -18 -17 -10 2 -17 -3 -17 -13 0 -9 -16 -25 -35 -37 -20 -11 -45 -39 -57 -61 -11 -23 -34 -54 -49 -68 -16 -15 -29 -36 -29 -47 0 -10 -11 -36 -25 -56 -14 -20 -28 -56 -31 -79 -4 -23 -12 -49 -19 -57 -17 -21 -32 -68 -40 -120 -3 -25 -13 -56 -22 -70 -61 -92 -77 -135 -76 -202 1 -93 27 -160 88 -224 54 -57 95 -74 176 -74 37 0 50 -5 62 -22 17 -26 117 -128 173 -176 68 -59 153 -99 223 -106 35 -3 69 -10 75 -15 20 -16 106 -24 144 -13 21 6 64 16 97 22 58 12 124 33 155 51 8 4 33 18 55 29 21 12 50 30 63 41 14 10 35 19 48 19 17 0 24 6 24 20 0 11 5 20 11 20 14 0 48 41 49 58 0 8 10 28 23 45 30 42 67 119 62 128 -3 4 4 27 15 50 11 24 20 55 20 69 0 14 7 36 16 49 14 19 17 47 15 153 -1 71 -5 137 -10 146 -5 10 -12 39 -16 67 -4 27 -15 61 -25 75 -10 14 -21 44 -25 65 -4 22 -15 52 -26 67 -10 15 -19 34 -19 43 0 8 -27 42 -60 75 -33 33 -60 62 -60 65 0 9 -80 85 -89 85 -5 0 -22 11 -38 24 -16 13 -47 28 -68 31 -22 4 -48 16 -58 26 -11 12 -32 19 -55 19 -20 0 -72 9 -116 20 -88 22 -90 23 -99 14z m111 -80 c37 -10 81 -23 99 -30 17 -8 37 -14 45 -14 8 0 19 -5 25 -11 12 -12 46 -32 78 -48 33 -15 158 -143 197 -202 20 -30 44 -73 53 -95 10 -21 23 -52 30 -69 63 -147 71 -341 21 -513 -20 -69 -81 -193 -111 -226 -13 -14 -29 -33 -37 -43 -17 -24 -93 -83 -106 -83 -5 0 -15 -7 -22 -15 -7 -8 -20 -15 -29 -15 -9 0 -22 -5 -29 -12 -18 -18 -97 -39 -182 -47 -83 -9 -200 0 -270 21 -95 28 -222 133 -290 241 -35 55 -54 66 -79 43 -24 -22 -133 -22 -151 -1 -7 8 -17 15 -23 15 -15 0 -86 82 -92 105 -35 147 -24 214 46 282 43 42 49 52 49 90 0 23 4 44 9 47 5 4 12 25 16 49 4 23 14 54 21 69 8 15 14 36 14 47 0 11 7 32 14 48 8 15 17 35 20 43 13 36 84 129 135 177 34 33 134 103 146 103 4 0 21 6 38 14 101 44 257 56 365 30z"/> <path d="M3960 5219 c-56 -45 -84 -75 -97 -104 -7 -16 -17 -37 -22 -45 -31 -52 -36 -129 -15 -229 10 -48 128 -166 175 -175 115 -24 164 -15 234 38 75 58 96 87 119 166 20 68 20 102 -2 170 -22 72 -66 131 -124 169 -44 29 -52 31 -145 31 -83 -1 -102 -4 -123 -21z m198 -83 c64 -33 122 -134 122 -212 0 -43 -5 -56 -36 -92 -19 -23 -41 -42 -47 -42 -7 0 -29 -9 -50 -20 -24 -13 -56 -20 -90 -20 -76 0 -125 36 -151 112 -21 63 -15 118 12 118 26 1 58 31 78 75 38 81 101 113 162 81z"/> <path d="M3404 5010 c-45 -29 -59 -70 -59 -175 0 -102 15 -138 63 -155 15 -6 35 -15 44 -20 10 -6 33 -10 52 -10 29 0 41 8 72 45 54 64 79 169 52 218 -24 42 -72 87 -94 87 -12 0 -35 7 -50 15 -37 19 -43 19 -80 -5z m120 -162 c8 -39 6 -49 -14 -77 -13 -17 -29 -31 -36 -31 -22 0 -44 43 -44 86 0 43 10 58 45 67 34 8 40 2 49 -45z"/> <path d="M6928 5503 c-1 -16 -1 -40 0 -54 1 -15 -5 -32 -13 -39 -17 -14 -22 -125 -5 -115 6 3 10 16 10 29 0 12 4 26 10 32 15 15 25 174 11 174 -6 0 -12 -12 -13 -27z"/> <path d="M6878 5275 c-12 -21 -19 -73 -10 -79 19 -12 33 21 24 55 -4 19 -11 29 -14 24z"/> <path d="M6840 5120 c0 -16 -9 -53 -21 -82 -19 -50 -19 -98 1 -98 13 0 22 35 15 63 -4 16 1 36 14 58 25 40 28 89 6 89 -10 0 -15 -10 -15 -30z"/> <path d="M6789 4918 c-7 -21 -32 -137 -40 -183 -5 -33 -14 -68 -19 -77 -6 -10 -10 -37 -10 -60 0 -24 -7 -52 -15 -62 -8 -11 -15 -34 -15 -51 0 -17 -7 -40 -15 -51 -17 -22 -19 -44 -5 -44 6 0 10 9 10 19 0 10 7 21 15 25 10 3 15 19 15 45 0 22 5 43 10 46 6 3 10 16 10 27 0 20 13 68 31 113 4 11 10 44 13 74 3 29 9 58 14 65 14 17 25 116 12 116 -5 0 -10 -1 -11 -2z"/> <path d="M2535 4727 c-17 -10 -4 -13 80 -18 93 -5 104 -8 161 -42 62 -38 124 -109 124 -144 0 -10 7 -27 15 -37 17 -22 21 -161 6 -170 -4 -3 -11 -21 -14 -41 -3 -19 -19 -49 -36 -67 -17 -18 -31 -36 -31 -40 0 -5 -6 -8 -13 -8 -8 0 -24 -9 -37 -20 -13 -11 -29 -20 -37 -20 -7 0 -13 -4 -13 -10 0 -16 38 -12 67 7 45 30 103 86 103 100 0 7 4 13 9 13 5 0 19 32 31 72 26 81 23 168 -6 228 -18 38 -150 170 -169 170 -7 0 -24 9 -38 20 -20 16 -40 20 -104 20 -43 0 -87 -6 -98 -13z"/> <path d="M2460 4690 c-8 -5 -23 -11 -32 -14 -10 -3 -18 -10 -18 -16 0 -16 40 -12 46 5 4 8 17 15 30 15 13 0 24 5 24 10 0 12 -29 12 -50 0z"/> <path d="M2315 4568 c-29 -62 -34 -160 -11 -230 7 -24 19 -63 27 -87 11 -36 23 -50 61 -74 26 -17 48 -33 48 -36 0 -14 69 -42 96 -39 28 3 27 4 -24 31 -30 15 -62 33 -73 40 -25 18 -74 87 -84 117 -4 13 -14 30 -21 38 -10 9 -14 39 -14 92 0 69 4 87 30 135 36 66 36 65 10 65 -15 0 -28 -14 -45 -52z"/> <path d="M2568 4553 c-38 -41 -58 -87 -58 -131 0 -79 79 -125 154 -91 56 26 46 157 -16 218 -39 38 -47 38 -80 4z"/> <path d="M2683 4092 c-34 -5 -28 -22 7 -22 17 0 30 4 30 9 0 14 -11 18 -37 13z"/> <path d="M8925 4023 c-3 -15 -12 -41 -20 -58 -7 -16 -23 -82 -34 -145 -26 -138 -67 -332 -88 -415 -8 -33 -16 -71 -18 -85 -1 -14 -10 -45 -19 -70 -10 -25 -26 -74 -36 -110 -10 -36 -25 -83 -34 -105 -8 -22 -15 -48 -16 -58 0 -11 -6 -31 -13 -45 -39 -78 -57 -118 -57 -130 0 -7 -11 -37 -24 -65 -85 -182 -151 -317 -198 -398 -29 -52 -64 -114 -76 -139 -13 -25 -38 -65 -57 -90 -19 -25 -39 -54 -44 -65 -12 -28 -76 -122 -109 -160 -15 -18 -36 -43 -47 -56 -11 -13 -27 -35 -35 -50 -18 -33 -74 -102 -116 -144 -17 -16 -35 -38 -40 -47 -10 -18 -153 -176 -214 -237 -79 -78 -283 -263 -308 -278 -15 -9 -43 -31 -62 -49 -19 -17 -59 -48 -89 -68 -29 -20 -75 -54 -101 -76 -26 -22 -52 -40 -58 -40 -6 0 -32 -17 -59 -38 -59 -47 -106 -76 -182 -112 -33 -16 -62 -34 -66 -40 -4 -6 -46 -30 -93 -54 -48 -24 -118 -60 -157 -81 -38 -20 -101 -50 -140 -65 -38 -16 -105 -45 -149 -64 -43 -20 -104 -45 -135 -56 -31 -11 -87 -32 -126 -46 -73 -27 -206 -66 -311 -90 -34 -7 -75 -19 -90 -25 -16 -6 -65 -17 -109 -26 -44 -8 -100 -19 -125 -24 -25 -5 -66 -12 -93 -16 -26 -3 -50 -10 -53 -14 -3 -5 -25 -9 -50 -9 -43 0 -120 -31 -107 -44 11 -10 78 -7 90 5 9 9 16 7 29 -6 12 -11 25 -15 43 -10 14 3 44 10 66 16 22 5 69 11 105 14 36 2 74 8 85 13 51 23 84 29 93 20 7 -7 20 -4 38 11 20 16 35 20 55 16 18 -4 42 0 66 12 21 10 46 16 56 15 10 -2 29 4 42 12 13 9 38 16 56 16 17 0 42 9 56 20 14 11 36 20 50 20 13 0 35 7 48 16 13 9 33 13 43 10 11 -4 24 0 32 9 7 8 25 15 40 15 15 0 33 7 40 15 7 8 22 15 34 15 11 0 35 9 51 20 17 11 40 20 53 20 12 0 22 5 22 10 0 6 11 10 24 10 14 0 31 6 38 13 7 6 38 23 68 36 104 45 185 84 190 92 3 4 17 13 30 19 14 5 39 19 55 29 17 11 35 20 42 20 7 1 31 14 55 30 24 16 62 39 86 52 63 35 74 41 112 69 19 14 42 30 51 35 67 41 149 99 149 107 0 5 8 11 18 15 9 4 50 33 91 66 41 32 84 65 96 73 13 8 49 40 81 70 33 30 79 72 104 92 57 46 250 237 278 275 12 16 54 65 94 109 40 44 75 84 76 89 4 11 39 53 68 83 11 11 23 28 26 36 4 8 29 43 57 78 28 34 51 66 51 71 0 4 8 17 18 29 9 11 24 30 32 42 8 12 23 33 33 45 9 13 17 26 17 30 0 4 14 27 30 52 17 24 30 47 30 50 0 3 11 21 25 39 14 18 25 38 25 44 0 7 9 23 20 37 11 14 20 32 20 39 0 8 5 14 10 14 6 0 13 8 17 18 5 15 91 194 112 232 24 45 31 61 31 72 1 7 9 31 20 53 11 22 19 45 20 51 0 6 7 17 15 24 8 7 15 23 15 36 0 12 5 26 10 29 6 3 10 14 10 23 0 9 6 29 14 43 7 14 16 42 20 61 4 20 13 41 21 48 8 7 15 25 15 40 0 15 7 41 15 56 8 16 15 38 15 49 1 11 7 31 15 45 8 14 14 41 15 61 0 19 5 40 12 47 6 6 13 33 14 58 2 25 7 51 12 57 6 7 13 37 17 67 4 30 11 60 16 66 22 27 49 467 30 478 -6 4 -13 -6 -16 -21z"/> <path d="M3520 4014 c-25 -13 -56 -23 -70 -24 -23 0 -142 -38 -165 -52 -5 -3 -44 -16 -85 -28 -41 -12 -79 -25 -85 -30 -5 -4 -35 -15 -65 -24 -30 -10 -65 -26 -78 -37 -14 -10 -31 -19 -38 -19 -24 0 -124 -34 -124 -42 0 -15 77 -8 90 7 7 8 25 15 41 15 16 0 29 4 29 10 0 5 17 12 38 15 38 7 66 16 115 41 16 8 36 14 45 14 9 0 29 6 44 14 15 8 42 17 60 21 18 4 38 11 43 15 6 4 27 10 48 14 20 4 37 11 37 15 0 5 20 12 44 15 24 4 50 14 56 21 7 8 20 15 30 15 10 0 31 7 46 15 16 8 45 15 64 15 26 0 31 3 20 10 -25 16 -92 9 -140 -16z"/> <path d="M31 3897 c1 -70 5 -127 9 -127 5 0 8 -21 8 -46 0 -59 12 -146 22 -159 4 -5 11 -35 15 -65 4 -30 11 -60 17 -67 5 -6 10 -32 12 -57 1 -25 8 -52 14 -58 7 -7 12 -28 12 -47 0 -20 7 -49 15 -65 8 -15 15 -35 15 -43 0 -8 9 -34 20 -58 11 -24 17 -50 14 -58 -2 -7 2 -19 10 -26 9 -7 18 -29 22 -49 4 -19 13 -47 20 -61 8 -14 14 -34 14 -43 0 -9 5 -20 10 -23 6 -3 10 -17 10 -29 0 -13 7 -29 15 -36 8 -7 17 -27 21 -46 3 -18 12 -38 20 -45 8 -6 14 -20 14 -30 0 -17 6 -32 31 -79 36 -66 109 -220 109 -228 0 -6 6 -15 13 -19 6 -4 23 -30 37 -58 14 -27 35 -64 47 -81 13 -17 23 -34 23 -37 0 -3 13 -26 30 -50 16 -25 30 -48 30 -52 0 -4 8 -17 18 -30 9 -12 24 -33 32 -45 8 -12 23 -31 33 -42 9 -12 17 -27 17 -34 0 -7 4 -14 8 -16 12 -5 102 -125 102 -137 0 -5 7 -14 15 -18 8 -5 29 -29 47 -54 18 -26 66 -83 106 -127 40 -44 82 -93 94 -109 34 -44 231 -242 248 -248 8 -3 57 -46 109 -95 51 -50 95 -90 97 -90 7 0 117 -85 232 -178 19 -15 39 -29 45 -32 7 -3 45 -28 86 -55 109 -73 122 -81 166 -105 22 -12 59 -35 83 -51 24 -16 47 -29 53 -29 5 0 27 -11 49 -25 22 -14 44 -25 49 -25 5 0 16 -6 23 -13 7 -7 45 -28 83 -46 39 -18 102 -48 140 -67 39 -19 78 -34 88 -34 9 0 17 -4 17 -10 0 -5 10 -10 23 -10 12 0 36 -9 52 -20 17 -11 40 -20 51 -20 12 0 27 -7 34 -15 7 -8 23 -15 37 -15 13 0 31 -6 39 -14 7 -8 23 -12 34 -9 11 3 31 -2 45 -11 13 -9 35 -16 48 -16 14 0 36 -9 50 -20 14 -11 39 -20 56 -20 18 0 43 -7 56 -16 13 -8 32 -14 42 -12 10 1 35 -6 56 -16 24 -11 48 -15 64 -11 16 4 35 0 52 -11 14 -10 48 -19 74 -20 27 -1 54 -8 62 -14 7 -6 42 -12 79 -13 36 -2 68 -6 72 -10 4 -4 20 -7 35 -7 15 0 40 -5 54 -10 20 -8 35 -7 56 4 16 8 31 10 35 5 7 -12 81 -12 88 0 8 12 -45 31 -114 41 -65 10 -192 37 -236 51 -17 5 -40 9 -53 9 -20 0 -215 46 -296 70 -16 5 -50 14 -75 20 -25 7 -54 16 -65 21 -31 14 -204 69 -217 69 -6 0 -19 6 -27 14 -9 7 -40 21 -70 31 -30 10 -84 32 -120 50 -36 17 -93 42 -126 55 -33 13 -67 29 -75 36 -9 7 -36 23 -60 34 -25 12 -63 32 -85 44 -22 13 -76 42 -120 66 -44 23 -87 48 -95 55 -8 6 -35 23 -59 36 -25 13 -56 35 -70 48 -14 13 -45 32 -67 42 -23 10 -48 26 -55 35 -8 9 -32 28 -54 42 -74 47 -326 254 -421 347 -28 28 -82 80 -120 116 -214 204 -508 588 -672 874 -169 297 -241 455 -372 820 -50 138 -139 468 -155 575 -4 25 -13 67 -21 94 -8 27 -14 66 -14 87 0 39 -42 175 -60 193 -7 7 -10 -28 -9 -117z"/> <path d="M3684 3986 c4 -20 18 -57 31 -83 33 -65 55 -122 55 -142 1 -17 33 -61 45 -61 11 0 -6 82 -26 127 -11 23 -19 47 -19 52 0 6 -4 11 -10 11 -5 0 -10 5 -10 11 0 10 -21 64 -39 98 -4 8 -13 17 -21 19 -10 4 -11 -4 -6 -32z"/> <path d="M2781 3658 c-1 -37 3 -69 8 -72 4 -3 11 -42 14 -86 5 -80 11 -100 23 -87 11 11 12 151 1 172 -6 11 -19 47 -28 80 l-18 60 0 -67z"/> <path d="M3745 3673 c-16 -3 -34 -9 -39 -14 -6 -5 -17 -9 -25 -9 -9 0 -29 -7 -45 -15 -15 -8 -35 -15 -43 -15 -8 0 -44 -13 -80 -30 -35 -16 -77 -30 -91 -30 -15 0 -36 -6 -47 -13 -24 -16 -98 -43 -142 -52 -18 -4 -35 -11 -38 -16 -4 -5 -14 -9 -23 -9 -10 0 -33 -8 -52 -18 -19 -10 -55 -24 -80 -31 -69 -20 -138 -52 -144 -67 -3 -8 -13 -14 -22 -14 -10 0 -14 -3 -11 -6 7 -7 95 14 112 26 6 4 26 11 45 15 19 4 41 11 50 16 8 4 29 12 45 18 17 5 55 19 85 30 30 12 69 21 86 21 18 0 34 6 37 14 6 14 87 46 120 46 10 0 31 6 45 14 36 18 91 37 125 43 15 3 27 12 27 19 0 9 11 14 33 14 34 0 119 40 125 59 4 11 1 11 -53 4z"/> <path d="M5360 3271 c-21 -14 -10 -21 47 -28 34 -4 53 -2 58 6 4 7 5 15 1 18 -10 11 -91 14 -106 4z"/> <path d="M5493 3256 c25 -19 227 -34 227 -18 0 10 -145 32 -205 32 -36 -1 -38 -2 -22 -14z"/> <path d="M5300 3182 c0 -9 25 -33 48 -46 7 -4 12 -1 12 8 0 9 -7 16 -15 16 -9 0 -18 7 -21 15 -6 16 -24 21 -24 7z"/> <path d="M3184 3161 c8 -12 46 -21 46 -11 0 8 -24 20 -41 20 -6 0 -8 -4 -5 -9z"/> <path d="M2187 3108 c-41 -42 -67 -121 -67 -205 l0 -65 64 7 c35 4 103 2 152 -3 168 -20 234 -24 234 -13 0 6 -17 11 -37 11 -21 0 -51 7 -68 16 -17 9 -68 18 -120 21 -119 8 -135 19 -135 89 0 57 14 74 59 74 18 0 21 6 21 40 0 29 -5 42 -19 50 -32 17 -50 12 -84 -22z"/> <path d="M3040 3103 c-47 -6 -64 -23 -23 -23 29 0 32 -3 36 -37 l3 -38 9 33 c4 19 14 36 21 39 17 6 18 34 2 31 -7 0 -29 -3 -48 -5z"/> <path d="M3290 3100 c0 -5 9 -10 20 -10 11 0 29 -9 40 -20 11 -11 25 -20 30 -20 14 0 12 26 -2 37 -20 16 -88 26 -88 13z"/> <path d="M2840 3080 c0 -5 7 -10 15 -10 8 0 15 5 15 10 0 6 -7 10 -15 10 -8 0 -15 -4 -15 -10z"/> <path d="M3425 3025 c16 -13 31 -22 34 -20 6 7 -40 45 -53 45 -6 -1 2 -12 19 -25z"/> <path d="M6250 3029 c-14 -4 -63 -8 -110 -8 -47 -1 -92 -6 -100 -11 -26 -16 5 -33 71 -38 39 -3 62 -9 66 -18 3 -8 10 -14 15 -14 12 0 68 58 68 70 0 5 6 10 13 13 22 8 2 14 -23 6z"/> <path d="M3510 2801 c0 -83 4 -151 9 -151 12 0 25 197 16 249 -15 88 -25 48 -25 -98z"/> <path d="M4632 2907 c-26 -55 -24 -69 8 -37 15 15 20 31 18 53 l-3 32 -23 -48z"/> <path d="M1605 2819 c-44 -22 -102 -123 -131 -226 -16 -58 -16 -64 0 -88 16 -25 40 -30 83 -19 l22 6 -21 29 c-18 24 -19 30 -7 45 7 9 12 29 11 44 -2 15 4 44 12 65 14 34 18 36 46 30 20 -4 37 -2 47 6 21 18 126 28 193 18 30 -4 168 -10 305 -13 138 -3 270 -8 295 -11 25 -3 51 -2 59 3 25 17 1 32 -52 32 -29 0 -124 7 -212 15 -88 9 -220 20 -292 25 -73 5 -138 12 -143 15 -9 6 -177 36 -190 34 -3 0 -14 -5 -25 -10z"/> <path d="M3028 2790 c-11 -26 -17 -130 -7 -130 5 0 11 10 14 23 8 30 1 127 -7 107z"/> <path d="M4973 2783 c-23 -9 -14 -21 22 -27 19 -4 35 -11 35 -15 0 -5 12 -12 26 -15 35 -9 104 -81 134 -140 21 -41 25 -64 25 -133 0 -51 -4 -87 -11 -91 -6 -4 -14 -17 -18 -29 -8 -26 -100 -111 -136 -125 -14 -6 -52 -10 -85 -11 -85 -2 -123 20 -190 110 -54 71 -57 78 -62 146 -4 64 -2 80 27 150 33 83 34 102 3 69 -37 -41 -43 -52 -53 -94 -27 -107 -29 -122 -13 -158 52 -123 78 -159 139 -202 37 -27 63 -38 89 -38 19 0 43 -5 53 -11 14 -9 35 -6 93 11 82 26 122 49 141 84 7 13 21 38 32 57 13 23 22 69 29 152 10 115 9 120 -11 136 -11 9 -27 33 -35 53 -9 20 -28 45 -44 54 -15 10 -30 21 -33 24 -31 36 -117 60 -157 43z"/> <path d="M4550 2759 c0 -11 5 -17 10 -14 6 3 10 13 10 21 0 8 -4 14 -10 14 -5 0 -10 -9 -10 -21z"/> <path d="M4915 2664 c-69 -23 -105 -85 -105 -181 0 -24 10 -44 36 -73 41 -45 60 -49 98 -19 38 30 50 57 37 83 -6 11 -14 62 -18 113 l-8 91 -40 -14z m15 -195 c0 -14 -30 -23 -40 -13 -4 5 -11 19 -14 31 -7 21 -6 22 23 7 17 -9 31 -20 31 -25z"/> <path d="M2998 2520 c-11 -122 -10 -176 2 -164 7 7 10 57 8 130 l-3 119 -7 -85z"/> <path d="M3500 2576 c-6 -8 -10 -23 -9 -33 1 -10 -1 -43 -4 -73 -11 -92 -16 -399 -7 -405 5 -3 11 -2 13 2 3 5 8 90 11 191 3 100 10 190 15 200 13 26 31 86 31 104 0 9 -7 19 -16 22 -21 8 -20 8 -34 -8z"/> <path d="M4442 2574 c-27 -19 -28 -39 -2 -87 11 -20 20 -55 20 -76 0 -39 19 -69 21 -34 3 37 -3 88 -12 98 -12 12 -12 52 1 60 12 7 14 55 2 55 -4 0 -18 -7 -30 -16z"/> <path d="M5896 2423 c-34 -18 -116 -100 -116 -116 0 -6 -8 -19 -17 -30 -30 -32 -22 -167 13 -236 30 -61 96 -131 122 -131 10 0 23 -5 29 -11 6 -6 16 -8 22 -4 7 4 -2 16 -24 31 -20 13 -38 24 -41 24 -7 0 -34 27 -34 34 0 3 -14 25 -30 50 -27 40 -31 54 -33 128 -2 80 -1 85 34 139 60 91 152 117 216 60 44 -40 60 -84 66 -171 6 -94 -17 -156 -80 -218 -43 -42 -48 -62 -16 -62 23 0 80 65 106 119 31 64 32 228 2 287 -54 106 -140 148 -219 107z"/> <path d="M2580 2407 c0 -8 3 -17 8 -21 4 -4 12 -24 17 -44 13 -45 29 -48 33 -6 2 21 -4 38 -22 57 -28 30 -36 33 -36 14z"/> <path d="M2490 2359 c0 -24 52 -93 63 -83 5 5 -13 61 -26 82 -10 15 -37 16 -37 1z"/> <path d="M4490 2298 c1 -20 11 -45 25 -63 23 -28 25 -28 25 -8 0 12 -4 24 -9 27 -5 3 -12 22 -15 41 -9 44 -26 46 -26 3z"/> <path d="M2636 2199 c-7 -93 -23 -148 -51 -179 -15 -16 -15 -20 -3 -20 19 0 43 28 53 60 4 14 12 31 18 38 13 16 13 143 0 166 -8 14 -12 -2 -17 -65z"/> <path d="M2532 2193 c-17 -47 -23 -131 -11 -139 5 -3 9 10 9 28 0 19 5 39 11 45 5 5 9 31 7 57 l-3 47 -13 -38z"/> <path d="M2968 2175 c-12 -62 -10 -181 2 -169 7 7 10 51 8 110 -2 78 -5 91 -10 59z"/> <path d="M4550 2174 c0 -37 118 -150 136 -131 3 2 -14 22 -36 43 -23 22 -50 54 -61 72 -22 35 -39 42 -39 16z"/> <path d="M4797 2014 c4 -10 13 -14 27 -10 11 3 28 6 36 6 28 1 -12 20 -42 20 -21 0 -26 -4 -21 -16z"/> <path d="M5280 1980 c0 -5 18 -10 40 -10 22 0 40 5 40 10 0 6 -18 10 -40 10 -22 0 -40 -4 -40 -10z"/> <path d="M2935 1829 c-5 -33 -3 -55 4 -62 8 -8 11 6 11 51 0 34 -2 62 -4 62 -2 0 -7 -23 -11 -51z"/> <path d="M4085 10 c-3 -5 3 -10 14 -10 12 0 21 5 21 10 0 6 -6 10 -14 10 -8 0 -18 -4 -21 -10z"/> <path d="M4860 10 c0 -5 9 -10 21 -10 11 0 17 4 14 10 -8 13 -35 13 -35 0z"/> </g> </svg> 